<svg xmlns="http://www.w3.org/2000/svg" viewBox="0 0 750 500"><g id="freepik--background-complete--inject-2"><path d="M580.05,225.48a29.59,29.59,0,0,1-5.19,2A30.91,30.91,0,0,1,569.5,229a28.69,28.69,0,0,1,5.19-2A30.91,30.91,0,0,1,580.05,225.48Z" style="fill:#e0e0e0"></path><polygon points="445.99 417.7 445.99 461.49 451.85 461.49 459.72 417.2 445.99 417.7" style="fill:#e0e0e0"></polygon><polygon points="499.29 417.7 499.29 461.49 505.15 461.49 513.02 417.2 499.29 417.7" style="fill:#e0e0e0"></polygon><polygon points="565.94 417.7 565.94 461.49 560.08 461.49 552.21 417.2 565.94 417.7" style="fill:#e0e0e0"></polygon><polygon points="603.39 417.7 603.39 461.49 597.52 461.49 589.65 417.2 603.39 417.7" style="fill:#e0e0e0"></polygon><path d="M482.61,321.37s-23.17-6.68-29.56,2.23S446,418.3,446,418.3s41.36.76,42.12,0S482.61,321.37,482.61,321.37Z" style="fill:#e0e0e0"></path><path d="M602.21,402.65l1-148.76a34.47,34.47,0,0,0-34.63-34.71H514A34,34,0,0,0,480,254l3.51,148.63Z" style="fill:#ebebeb"></path><path d="M602.21,402.65s-21.06-31-45.8-32.07-78.07,0-78.07,0-23.64.9-25.29,30.18V418H602.21Z" style="fill:#ebebeb"></path><path d="M553.8,371.47l-61.23-.32c-6.39,0-13.66-.82-19.86.94-18.25,5.18-20.93,28.52-19.48,44.62.06.66-1,.66-1,0-1.21-13.5.21-32.41,11.76-41.4,6.66-5.18,14.4-5.26,22.35-5.22l67.49.35a.52.52,0,0,1,0,1Z" style="fill:#e0e0e0"></path><path d="M496.81,223.83a15.91,15.91,0,0,1,1.57-.47c.52-.09,1.18-.21,2-.33s1.68-.2,2.69-.29c4.06-.35,10-.56,17.25-.6,3.64,0,7.63,0,11.91.06a123.65,123.65,0,0,1,13.68.63,62.3,62.3,0,0,1,7.3,1.31,33.8,33.8,0,0,1,7.31,2.6,27.94,27.94,0,0,1,6.42,4.83,27.33,27.33,0,0,1,5,6.61,18.63,18.63,0,0,1,1.52,3.91,27.89,27.89,0,0,1,.63,4.07c.32,2.69.58,5.35.84,8,.5,5.22.87,10.27,1.18,15.08.6,9.61.87,18.29,1.05,25.57s.24,13.18.29,17.25c0,2,0,3.59,0,4.69v1.22a3.24,3.24,0,0,1,0,.41,2.64,2.64,0,0,1,0-.41c0-.3,0-.7,0-1.22,0-1.1-.08-2.67-.14-4.69-.1-4.1-.26-10-.45-17.24s-.53-15.95-1.16-25.55c-.32-4.8-.7-9.84-1.21-15.06-.26-2.6-.52-5.25-.85-7.94a26.63,26.63,0,0,0-.61-4,18.36,18.36,0,0,0-1.48-3.8,26.45,26.45,0,0,0-4.88-6.48,27,27,0,0,0-6.3-4.74,32.72,32.72,0,0,0-7.19-2.57,61.1,61.1,0,0,0-7.24-1.33,127.59,127.59,0,0,0-13.62-.67c-4.28-.08-8.27-.12-11.91-.12-7.28,0-13.17.15-17.23.43-1,.08-1.91.18-2.7.24l-2,.28c-.53.1-.92.23-1.19.29Z" style="fill:#e0e0e0"></path><path d="M584.12,263a38.46,38.46,0,0,1-8.49,3,20.41,20.41,0,0,1,4.16-1.73A19.68,19.68,0,0,1,584.12,263Z" style="fill:#e0e0e0"></path><path d="M579.51,271.5c0,.14-.88.22-2,.17s-1.93-.2-1.93-.34.88-.23,2-.18S579.52,271.36,579.51,271.5Z" style="fill:#e0e0e0"></path><path d="M544.48,268.65s.18-.14.58-.16a2.29,2.29,0,0,1,1.54.56,2.21,2.21,0,0,1,.76,2.32,2.64,2.64,0,0,1-2.28,1.93,2.73,2.73,0,0,1-2.55-1.57,2.49,2.49,0,0,1,.18-2.44,2.66,2.66,0,0,1,1.25-1.06c.36-.14.58-.13.59-.1a3.45,3.45,0,0,0-1.53,1.35,2.18,2.18,0,0,0-.06,2,2.27,2.27,0,0,0,2.09,1.26,2.19,2.19,0,0,0,1.85-1.54,1.87,1.87,0,0,0-.54-1.92,2.3,2.3,0,0,0-1.31-.63C544.7,268.65,544.49,268.7,544.48,268.65Z" style="fill:#e0e0e0"></path><path d="M546.48,254.88c.06.07-.66.6-1.55,1.69a10.69,10.69,0,0,0-1.87,10.26c.44,1.33.93,2.08.85,2.12a5.18,5.18,0,0,1-1.2-2,10.09,10.09,0,0,1,1.95-10.63A5.3,5.3,0,0,1,546.48,254.88Z" style="fill:#e0e0e0"></path><path d="M545.14,288a7.14,7.14,0,0,1-1.53-2.05,15,15,0,0,1-1.85-5.88,14.33,14.33,0,0,1,.06-3.42,5.3,5.3,0,0,1,1.06-2.62,3.09,3.09,0,0,1,1.58-1.07c.44-.12.7-.07.7,0a3.65,3.65,0,0,0-2,1.33c-.92,1.2-1.1,3.45-.89,5.77a16.67,16.67,0,0,0,1.66,5.76C544.62,287.12,545.21,287.89,545.14,288Z" style="fill:#e0e0e0"></path><path d="M536.68,270.46a3,3,0,0,1,2.57-1,3.07,3.07,0,0,1,2.59,1,13.91,13.91,0,0,0-2.58-.48A13.7,13.7,0,0,0,536.68,270.46Z" style="fill:#e0e0e0"></path><path d="M509.74,268.65s.18-.14.58-.16a2.3,2.3,0,0,1,1.54.56,2.24,2.24,0,0,1,.76,2.32,2.64,2.64,0,0,1-2.28,1.93,2.71,2.71,0,0,1-2.55-1.57,2.52,2.52,0,0,1,.17-2.44,2.71,2.71,0,0,1,1.25-1.06c.37-.14.59-.13.59-.1a3.41,3.41,0,0,0-1.52,1.35,2.15,2.15,0,0,0-.06,2,2.27,2.27,0,0,0,2.08,1.26,2.19,2.19,0,0,0,1.86-1.54,1.87,1.87,0,0,0-.54-1.92,2.3,2.3,0,0,0-1.31-.63C510,268.65,509.75,268.7,509.74,268.65Z" style="fill:#e0e0e0"></path><path d="M511.74,254.88c.06.07-.66.6-1.55,1.69a10.62,10.62,0,0,0-1.87,10.26c.44,1.33.92,2.08.85,2.12a5.18,5.18,0,0,1-1.2-2,10.26,10.26,0,0,1-.57-5.59,10.37,10.37,0,0,1,2.51-5A5.27,5.27,0,0,1,511.74,254.88Z" style="fill:#e0e0e0"></path><path d="M510.4,288a6.93,6.93,0,0,1-1.53-2.05A14.87,14.87,0,0,1,507,280a14.33,14.33,0,0,1,.06-3.42,5.21,5.21,0,0,1,1.06-2.62,3.09,3.09,0,0,1,1.58-1.07c.44-.12.7-.07.7,0a3.61,3.61,0,0,0-2,1.33c-.93,1.2-1.1,3.45-.89,5.77a16.9,16.9,0,0,0,1.65,5.76C509.88,287.12,510.47,287.89,510.4,288Z" style="fill:#e0e0e0"></path><path d="M501.93,270.46a3.81,3.81,0,0,1,5.17,0,13.91,13.91,0,0,0-2.59-.48A14.14,14.14,0,0,0,501.93,270.46Z" style="fill:#e0e0e0"></path><path d="M601.58,320.38s-35.43-9.17-41.83,2.89-7.54,95.13-7.54,95.13,51.15,1.88,51.27-.27S601.58,320.38,601.58,320.38Z" style="fill:#f5f5f5"></path><path d="M603.49,320s-23.4-6-29.79,2.88-8.07,95.94-8.07,95.94,37.34,1.1,38.1.35S603.49,320,603.49,320Z" style="fill:#ebebeb"></path><path d="M589.79,363.35s.09-.2.43-.23a1.17,1.17,0,0,1,1.13.74,3.7,3.7,0,0,1,.21,2A1.88,1.88,0,0,1,591,367a1.57,1.57,0,0,1-1.33.36,1.82,1.82,0,0,1-1.4-1.2,2.36,2.36,0,0,1,0-1.62,3.3,3.3,0,0,1,1.48-1.62l0,.21c-.39-.17-.6-.28-.58-.32s.24,0,.65.1l.22.05-.19.16a3.55,3.55,0,0,0-1.2,1.57,2,2,0,0,0,0,1.29,1.31,1.31,0,0,0,1,.86,1.13,1.13,0,0,0,1.32-1.05A3.8,3.8,0,0,0,591,364a1,1,0,0,0-.8-.69C590,363.29,589.81,363.39,589.79,363.35Z" style="fill:#e0e0e0"></path><path d="M583.13,347.57a11.19,11.19,0,0,1,1.45,2.12,50.25,50.25,0,0,1,2.83,5.53,50.76,50.76,0,0,1,2.11,5.85,10.83,10.83,0,0,1,.56,2.51,15.16,15.16,0,0,1-.91-2.4c-.52-1.49-1.28-3.54-2.24-5.75s-1.94-4.16-2.67-5.56A14.61,14.61,0,0,1,583.13,347.57Z" style="fill:#e0e0e0"></path><path d="M597.09,349a11.44,11.44,0,0,1-.9,2.19c-.61,1.32-1.44,3.15-2.33,5.18s-1.63,3.9-2.18,5.25a12,12,0,0,1-1,2.16,9.53,9.53,0,0,1,.62-2.29c.46-1.38,1.17-3.28,2.06-5.32s1.78-3.86,2.47-5.15A10.32,10.32,0,0,1,597.09,349Z" style="fill:#e0e0e0"></path><path d="M583.29,391.67a3.18,3.18,0,0,1,.06-1c.07-.65.2-1.57.38-2.71.36-2.28.94-5.42,1.72-8.86s1.6-6.52,2.25-8.74c.33-1.11.61-2,.82-2.61a4.16,4.16,0,0,1,.37-.93,30.28,30.28,0,0,1-.83,3.64c-.57,2.23-1.33,5.32-2.11,8.75s-1.4,6.55-1.86,8.81A31.94,31.94,0,0,1,583.29,391.67Z" style="fill:#e0e0e0"></path><path d="M597.07,382.14a11.87,11.87,0,0,1-.84-2.27c-.48-1.41-1.17-3.35-2-5.45s-1.72-4-2.37-5.31a12.65,12.65,0,0,1-1-2.21,9.33,9.33,0,0,1,1.31,2,49.61,49.61,0,0,1,4.42,10.82A10.22,10.22,0,0,1,597.07,382.14Z" style="fill:#e0e0e0"></path><rect x="289.37" y="434.76" width="6.77" height="26.91" transform="translate(585.52 896.44) rotate(180)" style="fill:#ebebeb"></rect><rect x="203.93" y="434.76" width="6.77" height="26.91" transform="translate(414.64 896.44) rotate(180)" style="fill:#ebebeb"></rect><rect x="244.35" y="434.76" width="6.77" height="26.91" transform="translate(495.47 896.44) rotate(180)" style="fill:#e0e0e0"></rect><rect x="171.7" y="434.76" width="6.77" height="26.91" transform="translate(350.17 896.44) rotate(180)" style="fill:#e0e0e0"></rect><rect x="203.81" y="372.7" width="92.34" height="62.06" style="fill:#ebebeb"></rect><rect x="170.51" y="372.7" width="33.3" height="62.06" style="fill:#e0e0e0"></rect><path d="M212.53,403.73a2.37,2.37,0,0,0,0-.35c0-.24,0-.57,0-1,0-.9,0-2.2,0-3.88,0-3.38.05-8.3.08-14.5l-.15.15,74.32.09-.24-.24h0v19.72l.24-.24-53,.11-15.61.07-4.22,0-1.09,0h-.39l.35,0H214l4.16,0,15.57.06,53.17.11h.25V384h0l-.25-.25-74.32.1h-.15V384c0,6.24.07,11.19.09,14.59,0,1.66,0,3,0,3.84,0,.42,0,.74,0,1S212.53,403.74,212.53,403.73Z" style="fill:#e0e0e0"></path><path d="M246.44,393.86a3.26,3.26,0,1,0,3.25-3.25A3.26,3.26,0,0,0,246.44,393.86Z" style="fill:#e0e0e0"></path><path d="M282.31,349l-3.64,5.23s8.18,2.27,8.18,9.55-5,8.64-10.45,8.64-10.69-1.59-10.46-8.87,7-10,7-10L269.57,349Z" style="fill:#f5f5f5"></path><path d="M179.52,358.68V372h57.3a6.66,6.66,0,0,0,6.66-6.66h0a6.66,6.66,0,0,0-6.66-6.66" style="fill:#e0e0e0"></path><path d="M181.27,361.47h21a0,0,0,0,1,0,0v7.74a0,0,0,0,1,0,0h-21a1.75,1.75,0,0,1-1.75-1.75v-4.25A1.75,1.75,0,0,1,181.27,361.47Z" transform="translate(381.78 730.68) rotate(180)" style="fill:#fafafa"></path><path d="M179.52,345.88V359.2h57.3a6.66,6.66,0,0,0,6.66-6.66h0a6.66,6.66,0,0,0-6.66-6.66Z" style="fill:#f5f5f5"></path><path d="M181.27,348.67h21a0,0,0,0,1,0,0v7.74a0,0,0,0,1,0,0h-21a1.75,1.75,0,0,1-1.75-1.75v-4.25A1.75,1.75,0,0,1,181.27,348.67Z" transform="translate(381.78 705.08) rotate(180)" style="fill:#e0e0e0"></path><rect x="640.13" y="135.98" width="2" height="104.74" transform="translate(202.78 692.7) rotate(-65.38)" style="fill:#e0e0e0"></rect><rect x="664.86" y="199.69" width="2" height="261.8" style="fill:#e0e0e0"></rect><rect x="663.48" y="268.93" width="5.16" height="35.14" rx="2.32" transform="translate(1332.12 572.99) rotate(180)" style="fill:#f5f5f5"></rect><path d="M595.81,166.43,593.15,171l-11.84-6.88,3-4.7a6.72,6.72,0,0,1,8.84-2.3h0A6.73,6.73,0,0,1,595.81,166.43Z" style="fill:#ebebeb"></path><polygon points="593.52 169.2 600.27 201.13 551.33 173.41 581.31 164.12 593.52 169.2" style="fill:#f5f5f5"></polygon><path d="M549,174.73c2.45-4.53,16-2,30.17,5.73S603,198.05,600.5,202.58s-16,2-30.17-5.72S546.59,179.26,549,174.73Z" style="fill:#e0e0e0"></path><path d="M693.75,461.49H637.2s8.41-8.57,28.66-7.74S693.75,461.49,693.75,461.49Z" style="fill:#e0e0e0"></path><path d="M662,199.73a3.84,3.84,0,1,0,3.83-3.84A3.83,3.83,0,0,0,662,199.73Z" style="fill:#f5f5f5"></path><polygon points="593.59 158.19 596.27 153.64 593.95 152.78 591.83 157.55 593.59 158.19" style="fill:#ebebeb"></polygon><path d="M581.31,163.85a23,23,0,0,1,7,1.68,22.66,22.66,0,0,1,5.84,4.24,5.72,5.72,0,0,0-1.32-1.71,14.86,14.86,0,0,0-9.37-4.32A5.92,5.92,0,0,0,581.31,163.85Z" style="fill:#e0e0e0"></path><path d="M582.76,182.49V192a4.59,4.59,0,0,1-1.07,3c-1.22,1.38-3.74,2.48-8.86-.22-6-3.18-5.42-6.75-4.45-8.68a4.82,4.82,0,0,1,1.86-1.94l7.64-4.45Z" style="fill:#fafafa"></path><path d="M579.55,180.74a7.62,7.62,0,0,0-.57,1.11,28.27,28.27,0,0,1-1.65,3c-.38.61-.82,1.25-1.31,1.93a4.5,4.5,0,0,1-.83.91,1.15,1.15,0,0,1-1.08.22.88.88,0,0,1,.18-1.7,2.43,2.43,0,0,1,1.36.32,13.64,13.64,0,0,1,1.41.75,15.39,15.39,0,0,1,1.34.87c.43.3.77.62.72,1a2.54,2.54,0,0,1-.53,1.22c-.25.3-.63.2-.88-.11a1.12,1.12,0,0,1-.11-1.1,7.42,7.42,0,0,1,.56-1.13c.4-.73.78-1.42,1.14-2.05l1.61-3a5.82,5.82,0,0,0,.53-1.13,4.81,4.81,0,0,0-.71,1L579,185.76c-.37.63-.76,1.31-1.19,2a7.91,7.91,0,0,0-.61,1.2,2.13,2.13,0,0,0-.13.76,1.38,1.38,0,0,0,.29.78,1.16,1.16,0,0,0,.74.48,1,1,0,0,0,.89-.31,2.59,2.59,0,0,0,.44-.71,2.53,2.53,0,0,0,.23-.82,1.29,1.29,0,0,0-.28-.9,2.88,2.88,0,0,0-.64-.58,16.36,16.36,0,0,0-1.38-.9,15.59,15.59,0,0,0-1.45-.77,2.94,2.94,0,0,0-1.67-.36,1.42,1.42,0,0,0-1.17,1.27,1.4,1.4,0,0,0,.9,1.39,1.56,1.56,0,0,0,1.52-.3,4.87,4.87,0,0,0,.92-1c.48-.7.91-1.36,1.27-2a22.25,22.25,0,0,0,1.52-3.06A4.49,4.49,0,0,0,579.55,180.74Z" style="fill:#e0e0e0"></path><rect x="176.43" y="183.68" width="107.76" height="70.85" transform="translate(11.2 449.41) rotate(-90)" style="fill:#e0e0e0"></rect><rect x="180.07" y="186.74" width="100.21" height="64.78" transform="translate(11.04 449.31) rotate(-90)" style="fill:#fafafa"></rect><rect x="213.96" y="210.22" width="32.69" height="17.83" transform="translate(11.17 449.44) rotate(-90)" style="fill:#e0e0e0"></rect></g><g id="freepik--Floor--inject-2"><path d="M661,461.71c0,.14-133,.26-297,.26s-297-.12-297-.26,133-.26,297-.26S661,461.57,661,461.71Z" style="fill:#263238"></path></g><g id="freepik--Thermostat--inject-2"><path d="M138.24,91.27h45.15a0,0,0,0,1,0,0v27.64a0,0,0,0,1,0,0H138.24A13.28,13.28,0,0,1,125,105.63v-1.08A13.28,13.28,0,0,1,138.24,91.27Z" style="fill:#F99520"></path><g style="opacity:0.7000000000000001"><path d="M138.24,91.27h45.15a0,0,0,0,1,0,0v27.64a0,0,0,0,1,0,0H138.24A13.28,13.28,0,0,1,125,105.63v-1.08A13.28,13.28,0,0,1,138.24,91.27Z" style="fill:#fff"></path></g><rect x="183.39" y="91.27" width="58.43" height="27.64" style="fill:#F99520"></rect><g style="opacity:0.5"><rect x="183.39" y="91.27" width="58.43" height="27.64" style="fill:#fff"></rect></g><rect x="241.83" y="91.27" width="58.43" height="27.64" style="fill:#F99520"></rect><g style="opacity:0.30000000000000004"><rect x="241.83" y="91.27" width="58.43" height="27.64" style="fill:#fff"></rect></g><rect x="300.26" y="91.27" width="58.43" height="27.64" style="fill:#F99520"></rect><g style="opacity:0.1"><rect x="300.26" y="91.27" width="58.43" height="27.64" style="fill:#fff"></rect></g><rect x="358.45" y="91.27" width="58.43" height="27.64" style="fill:#F99520"></rect><rect x="416.69" y="91.27" width="58.43" height="27.64" style="fill:#F99520"></rect><g style="opacity:0.2"><rect x="416.69" y="91.27" width="58.43" height="27.64"></rect></g><rect x="474.92" y="91.27" width="58.43" height="27.64" style="fill:#F99520"></rect><path d="M533.16,91.27h45.15a13.28,13.28,0,0,1,13.28,13.28v1.08a13.28,13.28,0,0,1-13.28,13.28H533.16a0,0,0,0,1,0,0V91.27A0,0,0,0,1,533.16,91.27Z" style="fill:#F99520"></path><g style="opacity:0.4"><rect x="474.92" y="91.27" width="58.43" height="27.64"></rect></g><g style="opacity:0.7000000000000001"><path d="M533.16,91.27h45.15a13.28,13.28,0,0,1,13.28,13.28v1.08a13.28,13.28,0,0,1-13.28,13.28H533.16a0,0,0,0,1,0,0V91.27A0,0,0,0,1,533.16,91.27Z"></path></g><circle cx="382.56" cy="104.65" r="20.16" transform="translate(183.8 447.86) rotate(-75.22)" style="fill:#263238"></circle><circle cx="387.69" cy="104.65" r="20.16" transform="translate(39.56 304.79) rotate(-45)" style="fill:#455a64"></circle><path d="M405.27,104.65a27.31,27.31,0,0,0-.65-4.27,16.91,16.91,0,0,0-2-4.63,17.53,17.53,0,0,0-11.76-8.16,17.52,17.52,0,0,0-9.11.77,16.58,16.58,0,0,0-4.39,2.37,16,16,0,0,0-3.66,3.68,17.27,17.27,0,0,0,0,20.47,18.41,18.41,0,0,0,1.7,2,19.34,19.34,0,0,0,2,1.68,16.55,16.55,0,0,0,4.39,2.36,17.43,17.43,0,0,0,20.87-7.38,17.08,17.08,0,0,0,2-4.64,27.3,27.3,0,0,0,.65-4.26,1.16,1.16,0,0,1,0,.28c0,.22,0,.5,0,.84a8,8,0,0,1-.11,1.36,12.33,12.33,0,0,1-.33,1.83,16.47,16.47,0,0,1-1.91,4.74A17.74,17.74,0,0,1,391,122.12a17.83,17.83,0,0,1-9.36-.74,16.67,16.67,0,0,1-4.51-2.41,16.4,16.4,0,0,1-3.78-3.78,17.7,17.7,0,0,1,0-21.08A19.51,19.51,0,0,1,375.08,92a19.15,19.15,0,0,1,2-1.71,16.71,16.71,0,0,1,4.51-2.42,17.83,17.83,0,0,1,9.36-.74,17.71,17.71,0,0,1,11.93,8.43,16.54,16.54,0,0,1,1.91,4.73,12.56,12.56,0,0,1,.33,1.83,8.1,8.1,0,0,1,.11,1.36c0,.35,0,.62,0,.84A1.29,1.29,0,0,1,405.27,104.65Z" style="fill:#263238"></path><path d="M181.08,67.69v8H180v-7h-1.8v-1Z" style="fill:#263238"></path><path d="M245.83,74.67v1h-5.72v-.77l3.24-3.13c.84-.82,1-1.32,1-1.82,0-.82-.58-1.32-1.69-1.32a2.5,2.5,0,0,0-2,.86l-.78-.67a3.71,3.71,0,0,1,2.92-1.21c1.66,0,2.73.86,2.73,2.22a3.24,3.24,0,0,1-1.31,2.51l-2.43,2.34Z" style="fill:#263238"></path><path d="M302.14,73.32c0,1.34-1,2.43-3,2.43a4.54,4.54,0,0,1-2.93-1l.53-.9a3.57,3.57,0,0,0,2.4.85c1.19,0,1.88-.55,1.88-1.41s-.61-1.39-2-1.39h-.64v-.8l2-2.46h-3.83v-1h5.25v.78L299.74,71C301.34,71.19,302.14,72.09,302.14,73.32Z" style="fill:#263238"></path><path d="M362.36,73.7h-1.52v2h-1.1v-2h-4.43v-.79l4.08-5.22h1.23l-3.91,5h3.06V71h1.07v1.73h1.52Z" style="fill:#263238"></path><path d="M417.87,73.27c0,1.38-1,2.48-3,2.48a4.6,4.6,0,0,1-2.93-1l.53-.9a3.57,3.57,0,0,0,2.39.85c1.2,0,1.89-.56,1.89-1.42s-.57-1.46-2.42-1.46H412.5l.43-4.17h4.49v1h-3.54l-.21,2.19h.88C416.93,70.87,417.87,71.86,417.87,73.27Z" style="fill:#263238"></path><path d="M477.57,73.24a2.57,2.57,0,0,1-2.82,2.51c-2.14,0-3.35-1.43-3.35-4,0-2.72,1.54-4.18,3.77-4.18a3.82,3.82,0,0,1,2,.47l-.43.89a2.72,2.72,0,0,0-1.53-.38c-1.61,0-2.65,1-2.65,3a2.72,2.72,0,0,0,0,.28,2.66,2.66,0,0,1,2.29-1A2.46,2.46,0,0,1,477.57,73.24Zm-1.1,0c0-.93-.71-1.53-1.82-1.53a1.65,1.65,0,0,0-1.83,1.55c0,.81.66,1.53,1.88,1.53A1.58,1.58,0,0,0,476.47,73.28Z" style="fill:#263238"></path><path d="M537.84,67.69v.78l-3.22,7.19h-1.21l3.16-7h-3.65v1.43h-1.09V67.69Z" style="fill:#263238"></path><path d="M382.71,108.53a27,27,0,0,1-4.22-3.3l-.05,0-.24-.2.25-.2a26.78,26.78,0,0,1,4.26-3.14,27.87,27.87,0,0,1-3.94,3.55v-.4l.05,0A28.44,28.44,0,0,1,382.71,108.53Z" style="fill:#263238"></path><path d="M394.49,101.65a27.58,27.58,0,0,1,4.22,3.3l.05,0,.23.21-.24.19a27,27,0,0,1-4.26,3.15,27.4,27.4,0,0,1,3.93-3.55v.4l-.05,0A28.44,28.44,0,0,1,394.49,101.65Z" style="fill:#263238"></path><path d="M398.05,105a92.2,92.2,0,0,1-9.72.26,92.2,92.2,0,0,1-9.72-.26,87.43,87.43,0,0,1,9.72-.27A87.43,87.43,0,0,1,398.05,105Z" style="fill:#263238"></path><path d="M109.61,106.76a28.07,28.07,0,0,0-.62-4.07,16.23,16.23,0,0,0-1.88-4.42,16.59,16.59,0,0,0-19.9-7A15.32,15.32,0,0,0,83,93.49,15,15,0,0,0,79.54,97a16.44,16.44,0,0,0,0,19.52A15.57,15.57,0,0,0,83,120a15.56,15.56,0,0,0,4.18,2.25,16.65,16.65,0,0,0,8.69.74,16.74,16.74,0,0,0,11.21-7.77,16.23,16.23,0,0,0,1.88-4.42,28.28,28.28,0,0,0,.62-4.07,1.1,1.1,0,0,1,0,.27v.8a7.39,7.39,0,0,1-.11,1.3,11.33,11.33,0,0,1-.32,1.75,15.64,15.64,0,0,1-1.82,4.51,16.88,16.88,0,0,1-11.39,8,16.89,16.89,0,0,1-8.92-.71,15.8,15.8,0,0,1-4.32-2.3,19.92,19.92,0,0,1-1.93-1.64,18.67,18.67,0,0,1-1.67-2,16.92,16.92,0,0,1,0-20.13,20.94,20.94,0,0,1,1.67-2,18.5,18.5,0,0,1,1.93-1.63,16,16,0,0,1,4.32-2.31,16.86,16.86,0,0,1,16,2.5,16.76,16.76,0,0,1,4.26,4.84,15.68,15.68,0,0,1,1.82,4.52,11.12,11.12,0,0,1,.32,1.75,7.32,7.32,0,0,1,.11,1.3v.8A1.1,1.1,0,0,1,109.61,106.76Z" style="fill:#263238"></path><path d="M100.49,106.76a64.26,64.26,0,0,1-8.11.26,64.49,64.49,0,0,1-8.12-.26,62.3,62.3,0,0,1,8.12-.26A62.08,62.08,0,0,1,100.49,106.76Z" style="fill:#263238"></path><path d="M633,104.65a27.46,27.46,0,0,0-.63-4.07,15.86,15.86,0,0,0-1.87-4.42,16.64,16.64,0,0,0-11.22-7.77,16.62,16.62,0,0,0-8.68.73,15.32,15.32,0,0,0-4.18,2.26A17.48,17.48,0,0,0,604.52,93a18.68,18.68,0,0,0-1.62,1.92,16.44,16.44,0,0,0,0,19.52,15.57,15.57,0,0,0,3.49,3.51,15.56,15.56,0,0,0,4.18,2.25,16.49,16.49,0,0,0,15.66-2.34,16.43,16.43,0,0,0,4.24-4.7,15.94,15.94,0,0,0,1.87-4.41,27.66,27.66,0,0,0,.63-4.07,1.1,1.1,0,0,1,0,.27c0,.21,0,.47,0,.8a7.39,7.39,0,0,1-.11,1.3,11.33,11.33,0,0,1-.32,1.75,15.93,15.93,0,0,1-1.82,4.51,16.88,16.88,0,0,1-11.39,8,17,17,0,0,1-8.93-.71,15.89,15.89,0,0,1-4.31-2.3,19.92,19.92,0,0,1-1.93-1.64,17.55,17.55,0,0,1-1.67-2,16.92,16.92,0,0,1,0-20.13,20.94,20.94,0,0,1,1.67-2A18.5,18.5,0,0,1,606.09,91a15.93,15.93,0,0,1,4.31-2.31,16.88,16.88,0,0,1,16.06,2.5A16.76,16.76,0,0,1,630.72,96a16,16,0,0,1,1.82,4.52,11.12,11.12,0,0,1,.32,1.75,7.29,7.29,0,0,1,.11,1.29c0,.33,0,.59,0,.8A1.23,1.23,0,0,1,633,104.65Z" style="fill:#263238"></path><path d="M623.85,104.65a126.77,126.77,0,0,1-16.23,0,126.77,126.77,0,0,1,16.23,0Z" style="fill:#263238"></path><path d="M615.74,111.92a57.94,57.94,0,0,1-.26-7.83,58,58,0,0,1,.26-7.84,60.08,60.08,0,0,1,.26,7.84A60,60,0,0,1,615.74,111.92Z" style="fill:#263238"></path></g><g id="freepik--Plant--inject-2"><path d="M171.6,401C162,393,160.67,379.6,162,367.73c.23-2,.17-4.1,1.26-5.77s3.38-2.69,5.09-1.71c1.42.81,1.93,2.58,2.65,4.06a11.61,11.61,0,0,0,4.31,4.82,4.43,4.43,0,0,0,4.05.69c1.79-.81,2.18-3.16,2.32-5.14.27-3.68.53-7.37.8-11.06a18.49,18.49,0,0,1,1.06-5.82,6.14,6.14,0,0,1,4.18-3.84,3.73,3.73,0,0,1,4.41,2.85,18.69,18.69,0,0,1-.14,2.47,2.09,2.09,0,0,0,1.06,2.05,2.38,2.38,0,0,0,2.24-.74,26,26,0,0,0,5.28-6.75,37.07,37.07,0,0,1,5-7,10.73,10.73,0,0,1,7.56-3.49c2.85.06,5.73,2.05,6.22,4.88s-1.35,5.55-3.29,7.66a44.41,44.41,0,0,1-9.88,8,3.66,3.66,0,0,0-1.67,1.53c-.53,1.28.62,2.69,1.88,3.23a23.33,23.33,0,0,0,4.58.88c1.52.3,3.14,1.11,3.61,2.62.65,2.08-1.21,4.07-3,5.32a37.93,37.93,0,0,1-11.69,5.58,12.78,12.78,0,0,0-4.32,1.69,3.67,3.67,0,0,0-1.5,4.1c.6,1.45,2.38,2,3.93,1.88a27.83,27.83,0,0,0,4.47-1.32c2.79-.81,6.29-.35,7.84,2.14a6.25,6.25,0,0,1,.23,5.58,14.33,14.33,0,0,1-3.38,4.65A38,38,0,0,1,190,401.93c-6.47,1.69-12.36,1.82-18.44-1" style="fill:#F99520"></path><g style="opacity:0.4"><path d="M171.6,401C162,393,160.67,379.6,162,367.73c.23-2,.17-4.1,1.26-5.77s3.38-2.69,5.09-1.71c1.42.81,1.93,2.58,2.65,4.06a11.61,11.61,0,0,0,4.31,4.82,4.43,4.43,0,0,0,4.05.69c1.79-.81,2.18-3.16,2.32-5.14.27-3.68.53-7.37.8-11.06a18.49,18.49,0,0,1,1.06-5.82,6.14,6.14,0,0,1,4.18-3.84,3.73,3.73,0,0,1,4.41,2.85,18.69,18.69,0,0,1-.14,2.47,2.09,2.09,0,0,0,1.06,2.05,2.38,2.38,0,0,0,2.24-.74,26,26,0,0,0,5.28-6.75,37.07,37.07,0,0,1,5-7,10.73,10.73,0,0,1,7.56-3.49c2.85.06,5.73,2.05,6.22,4.88s-1.35,5.55-3.29,7.66a44.41,44.41,0,0,1-9.88,8,3.66,3.66,0,0,0-1.67,1.53c-.53,1.28.62,2.69,1.88,3.23a23.33,23.33,0,0,0,4.58.88c1.52.3,3.14,1.11,3.61,2.62.65,2.08-1.21,4.07-3,5.32a37.93,37.93,0,0,1-11.69,5.58,12.78,12.78,0,0,0-4.32,1.69,3.67,3.67,0,0,0-1.5,4.1c.6,1.45,2.38,2,3.93,1.88a27.83,27.83,0,0,0,4.47-1.32c2.79-.81,6.29-.35,7.84,2.14a6.25,6.25,0,0,1,.23,5.58,14.33,14.33,0,0,1-3.38,4.65A38,38,0,0,1,190,401.93c-6.47,1.69-12.36,1.82-18.44-1"></path></g><path d="M216.7,335.29a1.15,1.15,0,0,1-.21.17l-.62.48c-.56.41-1.37,1-2.4,1.85a73.94,73.94,0,0,0-8.19,7.56c-1.62,1.71-3.31,3.67-5.09,5.8s-3.66,4.43-5.54,6.91a89.09,89.09,0,0,0-5.55,8.07c-.88,1.45-1.68,3-2.5,4.53s-1.65,3.14-2.48,4.74a180.71,180.71,0,0,0-8.54,18.47,88.09,88.09,0,0,0-4.57,16A64.79,64.79,0,0,0,169.94,421c0,1.33,0,2.35.06,3,0,.33,0,.6,0,.79v.28a1.14,1.14,0,0,1,0-.27c0-.2,0-.46-.06-.79-.07-.7-.11-1.73-.13-3.06a62.09,62.09,0,0,1,.95-11.19,87.1,87.1,0,0,1,4.51-16,179.16,179.16,0,0,1,8.53-18.52l2.49-4.74c.82-1.55,1.63-3.09,2.52-4.55a88.22,88.22,0,0,1,5.58-8.09c1.9-2.48,3.79-4.77,5.58-6.9s3.5-4.07,5.13-5.78a69.52,69.52,0,0,1,8.29-7.49c1-.81,1.88-1.4,2.44-1.8l.65-.45A1.12,1.12,0,0,1,216.7,335.29Z" style="fill:#263238"></path><path d="M188.9,365.93a5.11,5.11,0,0,1-.12-.86c-.06-.55-.13-1.36-.19-2.35-.12-2-.2-4.75-.27-7.78s-.2-5.79-.35-7.77c-.08-1-.14-1.79-.2-2.35a3.51,3.51,0,0,1,0-.86,3.83,3.83,0,0,1,.18.84c.1.55.21,1.35.31,2.35.23,2,.38,4.74.46,7.78s.13,5.71.17,7.78c0,.93.05,1.72.07,2.35A3.68,3.68,0,0,1,188.9,365.93Z" style="fill:#263238"></path><path d="M214.69,363.18a4.78,4.78,0,0,1-1,0c-.66,0-1.61,0-2.78.06-2.35.07-5.59.27-9.15.66s-6.78.88-9.09,1.31c-1.16.2-2.09.39-2.73.52a4.68,4.68,0,0,1-1,.16,6.64,6.64,0,0,1,1-.3c.64-.17,1.57-.4,2.72-.64,2.31-.49,5.53-1,9.1-1.42a91.15,91.15,0,0,1,9.19-.55c1.17,0,2.13,0,2.78.06A6.05,6.05,0,0,1,214.69,363.18Z" style="fill:#263238"></path><path d="M175.61,393.3a1.22,1.22,0,0,1-.15-.32c-.1-.26-.22-.57-.36-1-.31-.83-.73-2-1.23-3.55-1-3-2.24-7.21-3.55-11.86s-2.52-8.85-3.46-11.88c-.46-1.47-.83-2.68-1.11-3.58l-.3-1a1.2,1.2,0,0,1-.08-.35,1.22,1.22,0,0,1,.15.32c.1.26.22.57.36.95.31.83.73,2.05,1.23,3.55,1,3,2.24,7.21,3.56,11.86s2.52,8.86,3.45,11.88c.46,1.47.83,2.68,1.11,3.58l.3,1A1.12,1.12,0,0,1,175.61,393.3Z" style="fill:#263238"></path><path d="M210.24,385.08a1.65,1.65,0,0,1-.34.11l-1,.25-3.71.89c-3.13.75-7.44,1.83-12.21,3s-9.09,2.25-12.24,2.94c-1.57.34-2.85.61-3.74.77l-1,.18c-.23,0-.36.06-.36,0a1.63,1.63,0,0,1,.35-.11l1-.25,3.71-.89c3.13-.75,7.45-1.83,12.21-3s9.1-2.25,12.24-2.94c1.58-.34,2.85-.61,3.74-.77l1-.19C210.11,385.08,210.24,385.06,210.24,385.08Z" style="fill:#263238"></path><path d="M162.77,389.69c14.9-12.26,16.87-33,14.8-51.33-.34-3.06-.26-6.33-1.93-8.9s-5.22-4.15-7.87-2.64c-2.19,1.25-3,4-4.08,6.27a18.08,18.08,0,0,1-6.66,7.44c-1.87,1.17-4.24,2-6.26,1.07-2.76-1.26-3.36-4.89-3.58-7.94L146,316.58a28.42,28.42,0,0,0-1.64-9c-1.17-2.82-3.48-5.35-6.45-5.93s-6.43,1.37-6.81,4.4a28.64,28.64,0,0,0,.22,3.81c0,1.28-.47,2.72-1.64,3.17s-2.48-.31-3.47-1.14c-3.39-2.83-5.84-6.63-8.15-10.42s-4.56-7.68-7.69-10.82-7.28-5.49-11.67-5.39-8.84,3.16-9.61,7.54,2.09,8.55,5.09,11.82A68.38,68.38,0,0,0,109.39,317,5.65,5.65,0,0,1,112,319.4c.82,2-1,4.16-2.91,5-2.21.93-4.7.89-7.06,1.36s-4.85,1.72-5.57,4c-1,3.22,1.86,6.28,4.59,8.22a58.45,58.45,0,0,0,18.06,8.61c2.31.65,4.73,1.18,6.67,2.62s3.24,4.09,2.31,6.33-3.68,3.14-6.06,2.89-4.59-1.36-6.9-2c-4.32-1.25-9.71-.54-12.12,3.3a9.7,9.7,0,0,0-.35,8.62,22.32,22.32,0,0,0,5.22,7.18,58.87,58.87,0,0,0,26.44,15.64c10,2.61,19.09,2.81,28.48-1.48" style="fill:#F99520"></path><path d="M93.13,288.27l.32.27,1,.74c.86.64,2.12,1.59,3.71,2.86a115.45,115.45,0,0,1,12.65,11.66c2.49,2.65,5.1,5.67,7.85,9s5.64,6.84,8.56,10.67a139.3,139.3,0,0,1,8.55,12.46c1.36,2.24,2.61,4.6,3.87,7l3.84,7.32a280.18,280.18,0,0,1,13.18,28.51,136.27,136.27,0,0,1,7.06,24.65,100,100,0,0,1,1.64,17.21c0,2.05,0,3.64-.09,4.71,0,.52,0,.92,0,1.23a2.26,2.26,0,0,0,0,.42,2,2,0,0,0,.05-.42c0-.3.06-.71.1-1.22.1-1.08.17-2.67.2-4.72a95.7,95.7,0,0,0-1.47-17.28,134.83,134.83,0,0,0-7-24.77,274.9,274.9,0,0,0-13.18-28.59l-3.83-7.31c-1.27-2.4-2.52-4.78-3.89-7a139.4,139.4,0,0,0-8.62-12.49c-2.94-3.83-5.86-7.37-8.62-10.65s-5.4-6.29-7.92-8.93A108.37,108.37,0,0,0,98.26,292c-1.61-1.24-2.89-2.16-3.77-2.78l-1-.69Z" style="fill:#263238"></path><path d="M136.05,335.59a6,6,0,0,0,.2-1.33c.09-.85.19-2.1.28-3.63.2-3.08.32-7.33.43-12s.3-8.93.54-12c.11-1.53.22-2.77.3-3.62a6.16,6.16,0,0,0,.07-1.34,5.62,5.62,0,0,0-.28,1.31c-.16.84-.32,2.08-.49,3.61-.34,3.06-.58,7.32-.7,12s-.19,8.82-.26,12c0,1.44-.08,2.66-.11,3.64A6.4,6.4,0,0,0,136.05,335.59Z" style="fill:#263238"></path><path d="M96.23,331.34a8.32,8.32,0,0,0,1.58.06c1,0,2.49,0,4.3.09,3.62.1,8.62.42,14.13,1s10.46,1.37,14,2c1.79.31,3.23.61,4.22.8a8.68,8.68,0,0,0,1.56.26,7.66,7.66,0,0,0-1.51-.47c-1-.27-2.41-.62-4.2-1-3.56-.75-8.52-1.58-14-2.19a140,140,0,0,0-14.19-.85c-1.81,0-3.29,0-4.3.09A8.89,8.89,0,0,0,96.23,331.34Z" style="fill:#263238"></path><path d="M156.58,377.85a2.33,2.33,0,0,0,.23-.5c.15-.4.33-.88.56-1.47.48-1.28,1.12-3.15,1.89-5.48,1.54-4.64,3.47-11.12,5.49-18.31s3.9-13.67,5.34-18.34c.7-2.27,1.29-4.14,1.72-5.53.18-.6.33-1.1.46-1.5a1.87,1.87,0,0,0,.12-.54,2,2,0,0,0-.23.5c-.15.4-.34.88-.56,1.47-.48,1.28-1.13,3.15-1.89,5.47-1.54,4.65-3.47,11.13-5.5,18.32s-3.89,13.67-5.33,18.34l-1.72,5.52c-.18.61-.33,1.1-.46,1.51A1.81,1.81,0,0,0,156.58,377.85Z" style="fill:#263238"></path><path d="M103.11,365.14a2.2,2.2,0,0,0,.53.18l1.56.39,5.72,1.37c4.84,1.15,11.5,2.83,18.85,4.69s14,3.48,18.9,4.54c2.44.53,4.41.94,5.77,1.2l1.58.28a2,2,0,0,0,.56.06,2,2,0,0,0-.54-.17l-1.55-.39-5.73-1.37c-4.83-1.16-11.49-2.84-18.85-4.7s-14-3.48-18.9-4.54c-2.43-.53-4.4-.94-5.77-1.19l-1.57-.28A3.39,3.39,0,0,0,103.11,365.14Z" style="fill:#263238"></path><polygon points="144.36 424.87 145.72 461.68 185.39 461.68 188.53 424.87 144.36 424.87" style="fill:#263238"></polygon><rect x="140.53" y="412.7" width="52.73" height="12.17" style="fill:#263238"></rect><path d="M189.08,424.66c0,.14-9.94.25-22.2.25s-22.19-.11-22.19-.25,9.93-.25,22.19-.25S189.08,424.52,189.08,424.66Z" style="fill:#455a64"></path></g><g id="freepik--Character--inject-2"><path d="M488.92,455.46,455.44,282.17h.05c-.07-.26-.13-.51-.19-.76v0h0c-5.14-20.38-9.2-25.38-9.2-25.38L396,257.36c-3.93,7.06-4.43,24-4.43,24-.53,2.08,7.18,170.66,7.18,170.66l20.76-.06,5.67-159.88L470,455.88Z" style="fill:#263238"></path><path d="M438.43,286.68c0,.16-5.53,1.75-12.45,3.54s-12.56,3.11-12.6,2.94,5.53-1.75,12.45-3.54S438.39,286.51,438.43,286.68Z" style="fill:#455a64"></path><path d="M402.66,454.17c-.15,0-1.4-39.82-2.81-88.94s-2.43-89-2.29-89,1.4,39.81,2.81,88.94S402.8,454.17,402.66,454.17Z" style="fill:#455a64"></path><path d="M408.37,451.2c-.15,0-.4-39.21-.57-87.56s-.18-87.57,0-87.57.4,39.2.56,87.57S408.51,451.19,408.37,451.2Z" style="fill:#455a64"></path><path d="M417.16,273.69c.15,0-.4,39.74-1.23,88.75s-1.6,88.76-1.75,88.76.41-39.74,1.23-88.77S417,273.69,417.16,273.69Z" style="fill:#455a64"></path><path d="M425.19,292.09a87.54,87.54,0,0,1-.71-9.6,91.56,91.56,0,0,1-.18-9.64,86.82,86.82,0,0,1,.7,9.61A89.93,89.93,0,0,1,425.19,292.09Z" style="fill:#455a64"></path><path d="M474.71,455.34c-.14,0-10-40.79-22.14-91.18s-21.77-91.27-21.63-91.31S441,313.64,453.08,364,474.85,455.31,474.71,455.34Z" style="fill:#455a64"></path><path d="M480.69,455.2c-.14,0-9.54-41.16-21-92s-20.64-92.08-20.5-92.11,9.54,41.15,21,92S480.83,455.17,480.69,455.2Z" style="fill:#455a64"></path><path d="M484.48,454.17c-.15,0-8.32-40.93-18.26-91.47s-17.88-91.56-17.74-91.59,8.31,40.92,18.25,91.48S484.62,454.14,484.48,454.17Z" style="fill:#455a64"></path><path d="M399.63,187l-33.34-28.75.65-41,.64-.86c.35-.48.74-1,1.21-1.57a7.75,7.75,0,0,1,1.92-1.69,11.86,11.86,0,0,1,2.85-1.4c.95-.21,1.17-1.46.37-1.8s-3.44.18-6,2.07-1.29-2.85-.86-4.59,1.47-7.16,1-7.7c-.63-.79-1.62-.24-2,1.5s-1.89,6.9-2.8,6.66,1.36-9.06,1.36-9.06.8-1.81-.25-2.13c-1.88-.57-3.59,9-3.73,9.88-.1.63-1.1.4-1-.27s2.47-8.75.56-9.35c-1.47-.46-1.49,7.83-2.9,9.26s.66-6.3-.76-6.68c-.53-.14-.94-.17-1.49,4.42a86.7,86.7,0,0,0-1,9.57h0l-5.78,49.36,33.55,37.72Z" style="fill:#ffbe9d"></path><polygon points="399.64 452.43 396.92 461.49 416.3 461.26 417.16 451.56 399.64 452.43" style="fill:#F99520"></polygon><path d="M416.67,459.42a11.88,11.88,0,0,1-2.82.22c-1.74.05-4.15,0-6.81,0l-6.8-.22a13.59,13.59,0,0,1-2.82-.22,12.48,12.48,0,0,1,2.82-.21c1.75,0,4.16,0,6.82,0l6.8.21A14.08,14.08,0,0,1,416.67,459.42Z" style="fill:#263238"></path><path d="M408.37,451.2a14.3,14.3,0,0,1,.08,4.08,14,14,0,0,1-.54,4.06,14.42,14.42,0,0,1-.08-4.09C408,453,408.2,451.19,408.37,451.2Z" style="fill:#263238"></path><g style="opacity:0.6000000000000001"><polyline points="396.92 461.49 416.3 461.26 416.46 459.42 397.25 459.17 396.92 461.27" style="fill:#fff"></polyline></g><path d="M415.44,97.89c-1.27.74,2.72,7.67,1,6.65s-3.89-9-5.19-8.2c-1.69,1.07,2.63,8.26,2.95,8.89s-.6,1.09-.86.51c-.37-.85-4.48-9.62-6.15-8.58-.93.57.31,2.12.31,2.12s4.45,7.94,3.65,8.4-3.6-4.11-4.42-5.72-1.92-1.86-2.33-.93c-.28.63,2.13,5.61,3,7.18s3.27,5.83.35,4.65-5.61-1-6.3-.47-.16,1.69.82,1.65a11.86,11.86,0,0,1,3.12.62,7.71,7.71,0,0,1,2.28,1.13c.6.44,1.12.84,1.58,1.21l.84.67,16.7,41.18L411.6,194.17l23.52,8.76,10.57-46.71-24.24-45.46h0a88.26,88.26,0,0,0-3.43-9C416.31,97.48,415.91,97.62,415.44,97.89Z" style="fill:#ffbe9d"></path><path d="M490,457.18l-.08-2-20,.58.18,6.51,1.23,0c5.51.14,28,.33,31.65-.8C507,460.26,490,457.18,490,457.18Z" style="fill:#F99520"></path><g style="opacity:0.6000000000000001"><path d="M477.3,462a6.4,6.4,0,0,0-2.66-3.88,7.08,7.08,0,0,0-4.7-1.22l.16,5.18Z" style="fill:#fff"></path></g><g style="opacity:0.6000000000000001"><path d="M498.33,459s6,1.43,5.27,2.36-23.46,1.52-33.51,1l0-.41,26.53-.49S497.17,459,498.33,459Z" style="fill:#fff"></path></g><path d="M469.79,461.87l.35,0,1,0,3.63.05c3.06,0,7.29,0,12-.12s8.89-.31,12-.49l3.61-.24,1-.08.34,0h-.35l-1,0-3.62.16c-3.06.14-7.28.31-11.95.43s-8.89.16-11.95.18l-3.63,0h-1Z" style="fill:#263238"></path><path d="M496.64,461.68a7.94,7.94,0,0,1,.63-1.63,8.09,8.09,0,0,1,1.2-1.32,2.7,2.7,0,0,0-1.41,1.21A2.45,2.45,0,0,0,496.64,461.68Z" style="fill:#263238"></path><path d="M490.68,459.06c.06,0,.33-.29.61-.73s.46-.81.4-.84-.33.3-.61.73S490.63,459,490.68,459.06Z" style="fill:#263238"></path><path d="M489.05,458.31s.35-.16.68-.45.57-.58.53-.62-.36.16-.69.45S489,458.26,489.05,458.31Z" style="fill:#263238"></path><path d="M488,456.59a2.62,2.62,0,0,0,1,.09,2.38,2.38,0,0,0,1-.12,2.28,2.28,0,0,0-1-.1A2.59,2.59,0,0,0,488,456.59Z" style="fill:#263238"></path><path d="M487.59,455.37a3.14,3.14,0,0,0,2.36.1,6,6,0,0,0-1.18-.05A6.18,6.18,0,0,0,487.59,455.37Z" style="fill:#263238"></path><path d="M491.31,457.43a4.1,4.1,0,0,0,1.28,0,8.62,8.62,0,0,0,1.35-.32,3.82,3.82,0,0,0,.77-.32.6.6,0,0,0,.31-.38.45.45,0,0,0-.21-.47,2.46,2.46,0,0,0-2.88.72,2.11,2.11,0,0,0-.4.8.77.77,0,0,0,0,.33,3.27,3.27,0,0,1,.55-1,2.31,2.31,0,0,1,1.08-.68,2.13,2.13,0,0,1,1.53.05c.2.14.13.36-.09.49a4.49,4.49,0,0,1-.71.31,10,10,0,0,1-1.31.35C491.8,457.38,491.31,457.39,491.31,457.43Z" style="fill:#263238"></path><path d="M491.64,457.48a1.12,1.12,0,0,0,.13-.83,2,2,0,0,0-.38-.86,1.29,1.29,0,0,0-1.08-.58.46.46,0,0,0-.38.56,1.18,1.18,0,0,0,.23.52,3.45,3.45,0,0,0,.63.71,2,2,0,0,0,.74.46s-.26-.21-.62-.57a4.76,4.76,0,0,1-.56-.7c-.18-.25-.32-.7,0-.76a1.15,1.15,0,0,1,.86.48,1.94,1.94,0,0,1,.39.77A3.72,3.72,0,0,1,491.64,457.48Z" style="fill:#263238"></path><path d="M470,456.8s.57-.07,1.48,0a6.67,6.67,0,0,1,3.25,1.14,6,6,0,0,1,2.08,2.59,13.2,13.2,0,0,1,.42,1.31s0-.14,0-.38a4.71,4.71,0,0,0-.25-1,5.75,5.75,0,0,0-2.1-2.71,6.48,6.48,0,0,0-3.38-1.12,5.72,5.72,0,0,0-1.1.05A1,1,0,0,0,470,456.8Z" style="fill:#263238"></path><path d="M479.76,460.08a12,12,0,0,0,2.91.19,11.77,11.77,0,0,0,2.91-.29c0-.06-1.31,0-2.91.07S479.76,460,479.76,460.08Z" style="fill:#263238"></path><path d="M475.85,460.18c-.05.05.12.25.26.53s.22.51.29.51.09-.3-.08-.61S475.89,460.13,475.85,460.18Z" style="fill:#263238"></path><path d="M474.33,458.51c-.05.05.09.24.3.43s.42.3.47.26-.09-.24-.3-.42S474.37,458.47,474.33,458.51Z" style="fill:#263238"></path><path d="M472.2,457.79c0,.06.28.06.58.14s.51.23.56.19-.13-.3-.49-.4S472.18,457.74,472.2,457.79Z" style="fill:#263238"></path><path d="M470.69,457.46c0,.06.09.16.26.21s.32.05.34,0-.09-.15-.26-.2S470.71,457.41,470.69,457.46Z" style="fill:#263238"></path><path d="M445.69,211.89l-5.44,28.31c11.35,15.79,12.38,29.34,12.38,29.34l-61.05,7.14c0-11.06,8.05-28.94,8.05-28.94l-9.8-33.45-17.74-23.1,17.6-15.87c-.33.89,16.51,10.64,16.51,10.64l24.19.21a20.09,20.09,0,0,1,3.48.69l11.82-30.64a43,43,0,0,1,8.53,29.91c-1.91,19.34-4.22,14.53-8.53,25.76" style="fill:#F99520"></path><path d="M412.17,236.76s0,.21-.22.53a5.39,5.39,0,0,1-.92,1.26,3.27,3.27,0,0,1-2.15,1,2.54,2.54,0,0,1-1.41-.36c-.43-.25-.81-.58-1.2-.85a3.61,3.61,0,0,0-2.45-.72,3.68,3.68,0,0,0-2,.75,6.67,6.67,0,0,0-1.29,1.56,2.69,2.69,0,0,1,1.06-1.84,3.76,3.76,0,0,1,2.16-1,4,4,0,0,1,2.8.77c.81.62,1.49,1.21,2.29,1.17a3.1,3.1,0,0,0,1.91-.81C411.7,237.44,412.09,236.7,412.17,236.76Z" style="fill:#fafafa"></path><path d="M442.36,255.68s0,.2-.21.53a5.49,5.49,0,0,1-.93,1.26,3.25,3.25,0,0,1-2.15,1,2.49,2.49,0,0,1-1.41-.37,13.27,13.27,0,0,1-1.19-.84,3.67,3.67,0,0,0-4.43,0,7,7,0,0,0-1.29,1.56,2.74,2.74,0,0,1,1.06-1.84,3.76,3.76,0,0,1,2.17-.95,4,4,0,0,1,2.79.77c.81.61,1.5,1.21,2.29,1.16a3,3,0,0,0,1.91-.8C441.89,256.36,442.28,255.62,442.36,255.68Z" style="fill:#fafafa"></path><path d="M423,225.82s.18.11.42.38a5.76,5.76,0,0,1,.87,1.31,3.31,3.31,0,0,1,.21,2.37,2.56,2.56,0,0,1-.84,1.2,13.55,13.55,0,0,1-1.21.82,3.65,3.65,0,0,0-1.52,2,3.51,3.51,0,0,0,0,2.11,6.83,6.83,0,0,0,1,1.76c0,.05-.84-.36-1.37-1.64a3.76,3.76,0,0,1-.14-2.36,4,4,0,0,1,1.7-2.35c.85-.54,1.65-1,1.88-1.74a3.05,3.05,0,0,0-.09-2.08C423.42,226.5,422.86,225.87,423,225.82Z" style="fill:#fafafa"></path><path d="M426,252.82s0-.21,0-.57a5.63,5.63,0,0,1,.37-1.52,3.34,3.34,0,0,1,1.61-1.76,2.51,2.51,0,0,1,1.44-.19c.5.07,1,.22,1.43.33a3.65,3.65,0,0,0,4.08-1.7,6.71,6.71,0,0,0,.61-1.94,2.75,2.75,0,0,1-.28,2.11,3.78,3.78,0,0,1-1.65,1.7,4,4,0,0,1-2.88.34,3.83,3.83,0,0,0-2.56-.21,3,3,0,0,0-1.46,1.47C426.14,252,426.06,252.85,426,252.82Z" style="fill:#fafafa"></path><path d="M429.82,267.3s.08-.2.31-.48a5.7,5.7,0,0,1,1.16-1.06,3.33,3.33,0,0,1,2.31-.58,2.58,2.58,0,0,1,1.31.65c.37.33.67.72,1,1.07a3.7,3.7,0,0,0,2.26,1.19,3.63,3.63,0,0,0,2.08-.35,6.48,6.48,0,0,0,1.58-1.28c.05,0-.22.88-1.4,1.6a3.76,3.76,0,0,1-2.32.5,4,4,0,0,1-2.58-1.31c-.67-.76-1.23-1.48-2-1.59a3.07,3.07,0,0,0-2,.41C430.41,266.72,429.88,267.37,429.82,267.3Z" style="fill:#fafafa"></path><path d="M396.93,268.27s.13-.17.42-.38a5.42,5.42,0,0,1,1.39-.73,3.26,3.26,0,0,1,2.38,0,2.46,2.46,0,0,1,1.1.95,12.5,12.5,0,0,1,.7,1.29,3.69,3.69,0,0,0,1.89,1.72,3.55,3.55,0,0,0,2.1.19,7.12,7.12,0,0,0,1.85-.83A2.74,2.74,0,0,1,407,271.7a3.75,3.75,0,0,1-2.37-.1,4,4,0,0,1-2.16-1.93c-.46-.9-.82-1.74-1.55-2.05a3,3,0,0,0-2.07-.11C397.65,267.87,397,268.36,396.93,268.27Z" style="fill:#fafafa"></path><path d="M430.94,218.46s.19-.11.54-.19a5.64,5.64,0,0,1,1.57-.12,3.31,3.31,0,0,1,2.17,1,2.6,2.6,0,0,1,.64,1.32c.09.49.08,1,.13,1.46a3.68,3.68,0,0,0,1,2.33,3.63,3.63,0,0,0,1.86,1,6.3,6.3,0,0,0,2,0,2.65,2.65,0,0,1-2.09.4,3.84,3.84,0,0,1-2.13-1,4,4,0,0,1-1.22-2.63,3.79,3.79,0,0,0-.61-2.49,3,3,0,0,0-1.85-.93C431.77,218.37,431,218.56,430.94,218.46Z" style="fill:#fafafa"></path><path d="M449,172.92s.19.1.44.37a5.52,5.52,0,0,1,.93,1.26,3.3,3.3,0,0,1,.32,2.36,2.57,2.57,0,0,1-.78,1.23,13.25,13.25,0,0,1-1.17.88,3.69,3.69,0,0,0-1.43,2.12,3.6,3.6,0,0,0,.12,2.11,6,6,0,0,0,1.1,1.7c0,.05-.85-.31-1.44-1.56a3.78,3.78,0,0,1-.25-2.36,4,4,0,0,1,1.58-2.42c.83-.59,1.61-1.06,1.81-1.83a3.11,3.11,0,0,0-.19-2.07C449.48,173.58,448.9,173,449,172.92Z" style="fill:#fafafa"></path><path d="M419.32,212.44s.18-.11.54-.19a5.67,5.67,0,0,1,1.56-.11,3.23,3.23,0,0,1,2.17,1,2.46,2.46,0,0,1,.64,1.31,14.65,14.65,0,0,1,.13,1.46,3.67,3.67,0,0,0,2.9,3.34,7,7,0,0,0,2,0,2.74,2.74,0,0,1-2.09.39,3.78,3.78,0,0,1-2.13-1,4.05,4.05,0,0,1-1.23-2.63,3.85,3.85,0,0,0-.6-2.49,3,3,0,0,0-1.86-.93C420.14,212.36,419.32,212.54,419.32,212.44Z" style="fill:#fafafa"></path><path d="M441.09,186.28s.18-.11.54-.19a5.64,5.64,0,0,1,1.57-.12,3.31,3.31,0,0,1,2.17,1,2.51,2.51,0,0,1,.63,1.32,12.17,12.17,0,0,1,.13,1.46,3.69,3.69,0,0,0,1.05,2.33,3.64,3.64,0,0,0,1.85,1,6.38,6.38,0,0,0,2,0,2.65,2.65,0,0,1-2.09.4,3.81,3.81,0,0,1-2.13-1,4,4,0,0,1-1.22-2.63,3.85,3.85,0,0,0-.61-2.49,3,3,0,0,0-1.86-.93C441.91,186.19,441.1,186.38,441.09,186.28Z" style="fill:#fafafa"></path><path d="M396.79,218.72s.21,0,.54.18a5.4,5.4,0,0,1,1.31.86,3.31,3.31,0,0,1,1.13,2.1,2.59,2.59,0,0,1-.3,1.43c-.23.44-.53.83-.79,1.23a3.7,3.7,0,0,0-.59,2.49,3.62,3.62,0,0,0,.85,1.93,6.51,6.51,0,0,0,1.62,1.21,2.73,2.73,0,0,1-1.89-1,3.78,3.78,0,0,1-1.06-2.12,4,4,0,0,1,.64-2.83c.57-.84,1.13-1.55,1-2.34a3.07,3.07,0,0,0-.9-1.87C397.49,219.15,396.74,218.8,396.79,218.72Z" style="fill:#fafafa"></path><path d="M386.11,191.15s.18-.11.54-.2a5.4,5.4,0,0,1,1.55-.19,3.31,3.31,0,0,1,2.22.87,2.62,2.62,0,0,1,.69,1.29c.11.49.13,1,.19,1.45a3.66,3.66,0,0,0,1.15,2.28,3.57,3.57,0,0,0,1.89.93,6.52,6.52,0,0,0,2-.12,2.7,2.7,0,0,1-2.07.49,3.85,3.85,0,0,1-2.18-.94,4,4,0,0,1-1.33-2.57,3.88,3.88,0,0,0-.72-2.47,3,3,0,0,0-1.89-.84C386.93,191,386.12,191.25,386.11,191.15Z" style="fill:#fafafa"></path><path d="M387.7,179.6s.18-.11.53-.21a5.87,5.87,0,0,1,1.56-.19,3.28,3.28,0,0,1,2.21.88,2.5,2.5,0,0,1,.69,1.29,12.31,12.31,0,0,1,.2,1.45A3.67,3.67,0,0,0,394,185.1a3.6,3.6,0,0,0,1.9.93,6.91,6.91,0,0,0,2-.12,2.77,2.77,0,0,1-2.08.48,3.71,3.71,0,0,1-2.17-.93,4.05,4.05,0,0,1-1.34-2.57,3.8,3.8,0,0,0-.71-2.47,3.06,3.06,0,0,0-1.89-.85C388.52,179.48,387.71,179.7,387.7,179.6Z" style="fill:#fafafa"></path><path d="M387.42,206.68s.18-.11.53-.21a5.87,5.87,0,0,1,1.56-.19,3.32,3.32,0,0,1,2.21.88,2.5,2.5,0,0,1,.69,1.29,12.31,12.31,0,0,1,.2,1.45,3.67,3.67,0,0,0,1.14,2.28,3.6,3.6,0,0,0,1.9.93,6.76,6.76,0,0,0,2-.12,2.73,2.73,0,0,1-2.07.48,3.71,3.71,0,0,1-2.17-.93,4,4,0,0,1-1.34-2.57,3.8,3.8,0,0,0-.71-2.47,3.08,3.08,0,0,0-1.9-.85C388.24,206.56,387.43,206.78,387.42,206.68Z" style="fill:#fafafa"></path><path d="M379.73,189s.21,0,.54.19a5.6,5.6,0,0,1,1.31.86,3.27,3.27,0,0,1,1.12,2.09,2.5,2.5,0,0,1-.29,1.43,13.82,13.82,0,0,1-.79,1.24,3.63,3.63,0,0,0-.6,2.48,3.59,3.59,0,0,0,.85,1.93,7,7,0,0,0,1.63,1.22,2.72,2.72,0,0,1-1.9-1,3.74,3.74,0,0,1-1.05-2.12,4,4,0,0,1,.63-2.82,3.93,3.93,0,0,0,1.05-2.35,3.08,3.08,0,0,0-.91-1.87C380.43,189.39,379.67,189,379.73,189Z" style="fill:#fafafa"></path><path d="M429.22,233.32s.18-.1.54-.18a5.64,5.64,0,0,1,1.57-.12,3.31,3.31,0,0,1,2.17,1,2.52,2.52,0,0,1,.63,1.31,12.55,12.55,0,0,1,.13,1.46,3.64,3.64,0,0,0,1.05,2.33,3.5,3.5,0,0,0,1.85,1,6.6,6.6,0,0,0,2,0,2.7,2.7,0,0,1-2.09.4,3.81,3.81,0,0,1-2.13-1,4,4,0,0,1-1.22-2.63,3.88,3.88,0,0,0-.61-2.5,3,3,0,0,0-1.86-.92C430,233.24,429.23,233.42,429.22,233.32Z" style="fill:#fafafa"></path><path d="M400.73,259.48s0-.22.16-.55a5.52,5.52,0,0,1,.81-1.35,3.3,3.3,0,0,1,2-1.21,2.58,2.58,0,0,1,1.44.24,14.1,14.1,0,0,1,1.27.74,3.69,3.69,0,0,0,2.51.49,3.56,3.56,0,0,0,1.89-.93,6.64,6.64,0,0,0,1.15-1.68,2.7,2.7,0,0,1-.89,1.94,3.75,3.75,0,0,1-2.07,1.14,4,4,0,0,1-2.85-.51,3.83,3.83,0,0,0-2.39-.95,3,3,0,0,0-1.83,1C401.14,258.76,400.81,259.53,400.73,259.48Z" style="fill:#fafafa"></path><path d="M418.79,268.15s-.14-.17-.27-.51a5.82,5.82,0,0,1-.38-1.52,3.31,3.31,0,0,1,.6-2.3,2.53,2.53,0,0,1,1.2-.84,12.22,12.22,0,0,1,1.41-.37,3.69,3.69,0,0,0,2.13-1.41,3.6,3.6,0,0,0,.69-2,6.75,6.75,0,0,0-.36-2,2.74,2.74,0,0,1,.73,2,3.71,3.71,0,0,1-.67,2.27,4,4,0,0,1-2.39,1.64c-1,.23-1.89.37-2.36,1a3.08,3.08,0,0,0-.61,2C418.57,267.35,418.88,268.12,418.79,268.15Z" style="fill:#fafafa"></path><path d="M408.17,247.64s.11-.18.38-.43a5.25,5.25,0,0,1,1.28-.91,3.31,3.31,0,0,1,2.36-.28,2.56,2.56,0,0,1,1.22.8,13.76,13.76,0,0,1,.86,1.19,3.66,3.66,0,0,0,2.09,1.46,3.62,3.62,0,0,0,2.11-.09,6.68,6.68,0,0,0,1.73-1.07c.05,0-.33.85-1.59,1.42a3.81,3.81,0,0,1-2.36.2,4,4,0,0,1-2.4-1.62c-.57-.84-1-1.62-1.8-1.83a3,3,0,0,0-2.07.16C408.84,247.15,408.23,247.73,408.17,247.64Z" style="fill:#fafafa"></path><path d="M404.65,224.79s.1-.19.36-.44a5.34,5.34,0,0,1,1.25-.94,3.29,3.29,0,0,1,2.36-.35,2.51,2.51,0,0,1,1.24.77c.34.37.6.79.89,1.16a3.67,3.67,0,0,0,2.13,1.41,3.59,3.59,0,0,0,2.11-.14,6.56,6.56,0,0,0,1.69-1.11c.05,0-.3.85-1.55,1.45a3.73,3.73,0,0,1-2.35.27,4,4,0,0,1-2.44-1.56c-.6-.82-1.08-1.6-1.85-1.78a3,3,0,0,0-2.06.21C405.3,224.28,404.71,224.87,404.65,224.79Z" style="fill:#fafafa"></path><path d="M407.46,138.61c-5.08,2.3-7.11,7.9-7.61,13s0,10.52-2,15.34c-1.68,4.07-5.12,7.78-4.73,12.13.29,3.24,2.7,6.1,3.15,9.34.85,6.26-5.79,11.86-4.59,18.08.55,2.85,2.74,5.29,5.35,7a38,38,0,0,0,8.64,3.72c4,1.34,8.53,2.67,12.49,1.27,3.52-1.26,5.92-4.47,9.56-5.39s7.22.56,10.87.64a12.21,12.21,0,0,0,9-3.42,8.11,8.11,0,0,0,1.86-8.55c-1.63-4-6.63-6.6-7.4-10.8-.7-3.81,2.4-7.57,1.42-11.33-1.09-4.19-6.69-6.39-8-10.51-1.63-4.94,3.57-10.22,1.54-15-1.19-2.84-4.61-4.64-5.53-7.55-.63-2,.05-4.16-.41-6.2-.78-3.52-4.74-5.79-8.6-6.59a20.17,20.17,0,0,0-14,2,14.23,14.23,0,0,0-7.28,10.78" style="fill:#263238"></path><path d="M415,135a17.09,17.09,0,0,1,22.86,12.64c.78,3.92.2,8.17,1.91,11.78,1.85,3.93,6.2,6.63,6.85,10.92s-2.45,7.92-3.1,12.07c-.67,4.31,1.36,8.68.87,13a11.31,11.31,0,0,1-19.65,6.29" style="fill:#263238"></path><path d="M428.32,143.84a10,10,0,0,1,13.69-8,7.71,7.71,0,0,1,3.95,3.4,8.37,8.37,0,0,1,.37,6.17,11.18,11.18,0,0,1-6.1,7.2,9.08,9.08,0,0,1-9.2-1.14,7.66,7.66,0,0,1-2.16-8.81" style="fill:#263238"></path><path d="M436,152.68a2.63,2.63,0,0,1-.91.13,18.86,18.86,0,0,1-2.51.05,10.25,10.25,0,0,1-3.68-.8,6.27,6.27,0,0,1-3.25-3.26,7.33,7.33,0,0,1-.4-4.6,8.47,8.47,0,0,1,1.7-3.37,9.13,9.13,0,0,1,1.85-1.72,2.41,2.41,0,0,1,.81-.44,17.84,17.84,0,0,0-2.37,2.39,8.64,8.64,0,0,0-1.53,3.24,7.16,7.16,0,0,0,.42,4.29,6,6,0,0,0,3,3,10.38,10.38,0,0,0,3.5.86C434.64,152.66,436,152.59,436,152.68Z" style="fill:#F99520"></path><path d="M437.08,151.64A7.86,7.86,0,0,0,436,154a9,9,0,0,0-.19,3.09,16.11,16.11,0,0,0,1,4c.54,1.46,1.39,3,2.22,4.62a22,22,0,0,1,2.12,5.61A8.88,8.88,0,0,1,440,178a9,9,0,0,1-5.92,4.11l-.32.07,0-.33c.07-1.26.15-2.59.23-3.95l.5.11a5.08,5.08,0,0,1-1.46,2,5.39,5.39,0,0,1-4.62,1.19l-.32-.07.15-.3a24.07,24.07,0,0,0,2.58-6.93,8.91,8.91,0,0,0-.1-3.42,8.27,8.27,0,0,0-1.41-3c-1.26-1.76-2.84-3.18-3.93-4.83a14.08,14.08,0,0,1-2.1-5,14.52,14.52,0,0,1,.46-7.72,10.41,10.41,0,0,1,1.23-2.54c.06,0-.5.88-1.05,2.6a14.67,14.67,0,0,0-.3,7.59,13.86,13.86,0,0,0,2.1,4.86c1.07,1.59,2.65,3,4,4.79a8.81,8.81,0,0,1,1.5,3.11,9.56,9.56,0,0,1,.12,3.62,24.47,24.47,0,0,1-2.61,7.08l-.17-.36a4.93,4.93,0,0,0,4.17-1.09,4.61,4.61,0,0,0,1.31-1.79l.59-1.43-.09,1.54c-.08,1.36-.16,2.69-.24,4l-.3-.27a8.58,8.58,0,0,0,5.6-3.88,8.41,8.41,0,0,0,1.1-6.21,22,22,0,0,0-2-5.51,48.77,48.77,0,0,1-2.18-4.68,15.67,15.67,0,0,1-1-4.13,9,9,0,0,1,.27-3.17,6.38,6.38,0,0,1,.84-1.82A4.17,4.17,0,0,1,437.08,151.64Z" style="fill:#455a64"></path><path d="M440.59,135.71a2.23,2.23,0,0,1,.27.78,11.1,11.1,0,0,1,.3,2.22,13.06,13.06,0,0,1-7.1,12.19,11.46,11.46,0,0,1-2.08.83,2.32,2.32,0,0,1-.81.15c0-.09,1.11-.38,2.71-1.31a13.57,13.57,0,0,0,6.92-11.86C440.81,136.86,440.5,135.73,440.59,135.71Z" style="fill:#455a64"></path><path d="M437.79,148.27a4.47,4.47,0,0,1-2.07.07,8.94,8.94,0,0,1-7.39-6.18,4.55,4.55,0,0,1-.29-2.06c.09,0,.19.77.64,1.94a9.53,9.53,0,0,0,7.1,5.94C437,148.22,437.79,148.18,437.79,148.27Z" style="fill:#455a64"></path><path d="M416.83,218.51a12.27,12.27,0,0,0,3.2-1.89,14.9,14.9,0,0,0,4.75-8.72,22,22,0,0,0-2.92-14.44,72.57,72.57,0,0,0-5.17-7.27,23.37,23.37,0,0,1-2.45-4.11,13.69,13.69,0,0,1-1.21-4.79,21.24,21.24,0,0,1,1.92-9.46c1.2-2.9,2.73-5.49,4-8.05a28.72,28.72,0,0,0,2.71-7.54,18.49,18.49,0,0,0-4.7-15.84,22,22,0,0,0-2.88-2.37l.22.11.62.37a14.85,14.85,0,0,1,2.18,1.74,18.37,18.37,0,0,1,4.82,9,18.57,18.57,0,0,1,.17,7.09,28.61,28.61,0,0,1-2.71,7.68c-1.24,2.59-2.75,5.18-3.93,8a20.91,20.91,0,0,0-1.87,9.23,16.46,16.46,0,0,0,3.55,8.64,70.82,70.82,0,0,1,5.18,7.34c2.82,5,3.71,10.44,2.86,14.74a14.92,14.92,0,0,1-5,8.81,10.85,10.85,0,0,1-2.4,1.43l-.69.23Z" style="fill:#455a64"></path><path d="M408.32,218.06s-.06,0-.17-.14a6.49,6.49,0,0,1-.46-.46,7.76,7.76,0,0,1-1.27-2.17,8.8,8.8,0,0,1-.46-3.94,8,8,0,0,1,2.22-4.74c1.42-1.43,3.52-2.13,5.43-3.28A6.35,6.35,0,0,0,416,201a5.81,5.81,0,0,0,.6-3.49,12.48,12.48,0,0,0-3.57-6.86c-1.88-2-4.17-3.86-5.86-6.37a10.49,10.49,0,0,1-1.69-4.11,13.55,13.55,0,0,1,0-4.31,35.51,35.51,0,0,1,2.36-7.72,31.53,31.53,0,0,0,2.08-6.9,12.23,12.23,0,0,0-.59-6.13,8.14,8.14,0,0,0-1.38-2.31,13.57,13.57,0,0,0-1.79-1.64,26.92,26.92,0,0,1-3.05-2.52,4.76,4.76,0,0,1-1.24-2.18,2.5,2.5,0,0,1-.08-.87s0,.31.18.85a4.86,4.86,0,0,0,1.29,2,27.37,27.37,0,0,0,3.08,2.44,13.27,13.27,0,0,1,1.86,1.65,8.44,8.44,0,0,1,1.47,2.39,12.45,12.45,0,0,1,.67,6.33,31.14,31.14,0,0,1-2,7,35,35,0,0,0-2.3,7.62,13.13,13.13,0,0,0,0,4.15,10.07,10.07,0,0,0,1.61,3.92c1.62,2.41,3.89,4.25,5.8,6.3a13,13,0,0,1,3.68,7.16,6.35,6.35,0,0,1-.67,3.76,6.92,6.92,0,0,1-2.58,2.52c-2,1.16-4,1.83-5.41,3.17a7.72,7.72,0,0,0-2.18,4.52,8.06,8.06,0,0,0,2.07,6.67Z" style="fill:#455a64"></path><path d="M436.75,211.05a2,2,0,0,1-.27-.47,5.27,5.27,0,0,1-.5-1.45,9.07,9.07,0,0,1-.14-2.43,23.87,23.87,0,0,1,.5-3.17c.24-1.15.54-2.41.73-3.77a16.16,16.16,0,0,0,.13-2.11,11.31,11.31,0,0,0-.35-2.2,11.63,11.63,0,0,0-2.31-4.16,41.43,41.43,0,0,0-3.66-3.74,47,47,0,0,1-3.71-3.77,14.55,14.55,0,0,1-2.57-4.25,15.51,15.51,0,0,1-.4-8.3,36.92,36.92,0,0,1,1.52-5.4c.22-.63.4-1.11.53-1.43a2.11,2.11,0,0,1,.23-.49,2.57,2.57,0,0,1-.13.52c-.11.39-.26.87-.44,1.46a45,45,0,0,0-1.34,5.41,15.33,15.33,0,0,0,.48,8.07c1.08,2.9,3.56,5.36,6.19,7.8a42.35,42.35,0,0,1,3.69,3.79,12,12,0,0,1,2.38,4.36,10.49,10.49,0,0,1,.34,2.31,15.48,15.48,0,0,1-.15,2.19c-.21,1.39-.54,2.64-.8,3.79a26.19,26.19,0,0,0-.57,3.12,9.53,9.53,0,0,0,.05,2.37A13.07,13.07,0,0,0,436.75,211.05Z" style="fill:#455a64"></path></g></svg>