<svg width="100%" height="100%" viewBox="0 0 800 184" fill="none" xmlns="http://www.w3.org/2000/svg">
<rect x="136.336" y="22.9985" width="117.536" height="16.1305" transform="rotate(145.958 136.336 22.9985)" fill="#535353"/>
<rect x="192.51" y="84.4442" width="167.542" height="16.1305" transform="rotate(152.212 192.51 84.4442)" fill="#3C3936"/>
<rect x="125.773" y="36.6339" width="151.289" height="16.1305" transform="rotate(125.117 125.773 36.6339)" fill="#535353"/>
<rect x="174.2" y="82.3814" width="137.442" height="16.1305" transform="rotate(177.266 174.2 82.3814)" fill="#3C3936"/>
<ellipse cx="30" cy="82" rx="23" ry="22" fill="#E07133"/>
<ellipse cx="126.5" cy="23" rx="22.5" ry="23" fill="#E07133"/>
<ellipse cx="188.5" cy="67.5" rx="22.5" ry="21.5" fill="#E07133"/>
<circle cx="22.5" cy="161.5" r="22.5" fill="#E07133"/>
<path d="M276.3 47.48C281.58 47.48 285.38 46.22 287.7 43.7C290.02 41.18 291.18 37.66 291.18 33.14C291.18 31.14 290.88 29.32 290.28 27.68C289.68 26.04 288.76 24.64 287.52 23.48C286.32 22.28 284.78 21.36 282.9 20.72C281.06 20.08 278.86 19.76 276.3 19.76H265.74V47.48H276.3ZM276.3 4.58C282.46 4.58 287.74 5.32 292.14 6.8C296.58 8.24 300.22 10.24 303.06 12.8C305.94 15.36 308.06 18.38 309.42 21.86C310.78 25.34 311.46 29.1 311.46 33.14C311.46 37.5 310.76 41.5 309.36 45.14C307.96 48.78 305.82 51.9 302.94 54.5C300.06 57.1 296.4 59.14 291.96 60.62C287.56 62.06 282.34 62.78 276.3 62.78H265.74V92H245.46V4.58H276.3ZM375.389 29.78V92H363.869C361.549 92 360.029 90.96 359.309 88.88L358.229 85.28C357.029 86.44 355.789 87.5 354.509 88.46C353.229 89.38 351.849 90.18 350.369 90.86C348.929 91.5 347.349 92 345.629 92.36C343.949 92.76 342.109 92.96 340.109 92.96C336.709 92.96 333.689 92.38 331.049 91.22C328.449 90.02 326.249 88.36 324.449 86.24C322.649 84.12 321.289 81.62 320.369 78.74C319.449 75.86 318.989 72.7 318.989 69.26V29.78H337.589V69.26C337.589 72.34 338.289 74.72 339.689 76.4C341.089 78.08 343.149 78.92 345.869 78.92C347.909 78.92 349.809 78.5 351.569 77.66C353.369 76.78 355.109 75.6 356.789 74.12V29.78H375.389ZM427.567 43.4C427.087 44.16 426.567 44.7 426.007 45.02C425.487 45.34 424.807 45.5 423.967 45.5C423.087 45.5 422.207 45.32 421.327 44.96C420.447 44.56 419.487 44.14 418.447 43.7C417.447 43.26 416.307 42.86 415.027 42.5C413.747 42.1 412.287 41.9 410.647 41.9C408.287 41.9 406.467 42.36 405.187 43.28C403.947 44.16 403.327 45.4 403.327 47C403.327 48.16 403.727 49.12 404.527 49.88C405.367 50.64 406.467 51.32 407.827 51.92C409.187 52.48 410.727 53.02 412.447 53.54C414.167 54.06 415.927 54.64 417.727 55.28C419.527 55.92 421.287 56.68 423.007 57.56C424.727 58.4 426.267 59.46 427.627 60.74C428.987 61.98 430.067 63.5 430.867 65.3C431.707 67.1 432.127 69.26 432.127 71.78C432.127 74.86 431.567 77.7 430.447 80.3C429.327 82.9 427.647 85.14 425.407 87.02C423.207 88.9 420.467 90.36 417.187 91.4C413.947 92.44 410.207 92.96 405.967 92.96C403.847 92.96 401.727 92.76 399.607 92.36C397.487 91.96 395.427 91.42 393.427 90.74C391.467 90.06 389.647 89.26 387.967 88.34C386.287 87.38 384.847 86.36 383.647 85.28L387.967 78.44C388.447 77.64 389.047 77.02 389.767 76.58C390.527 76.1 391.487 75.86 392.647 75.86C393.727 75.86 394.687 76.1 395.527 76.58C396.407 77.06 397.347 77.58 398.347 78.14C399.347 78.7 400.507 79.22 401.827 79.7C403.187 80.18 404.887 80.42 406.927 80.42C408.367 80.42 409.587 80.28 410.587 80C411.587 79.68 412.387 79.26 412.987 78.74C413.587 78.22 414.027 77.64 414.307 77C414.587 76.36 414.727 75.7 414.727 75.02C414.727 73.78 414.307 72.76 413.467 71.96C412.627 71.16 411.527 70.48 410.167 69.92C408.807 69.32 407.247 68.78 405.487 68.3C403.767 67.78 402.007 67.2 400.207 66.56C398.407 65.92 396.627 65.16 394.867 64.28C393.147 63.36 391.607 62.22 390.247 60.86C388.887 59.46 387.787 57.76 386.947 55.76C386.107 53.76 385.687 51.34 385.687 48.5C385.687 45.86 386.187 43.36 387.187 41C388.227 38.6 389.767 36.5 391.807 34.7C393.847 32.9 396.407 31.48 399.487 30.44C402.567 29.36 406.167 28.82 410.287 28.82C412.527 28.82 414.687 29.02 416.767 29.42C418.887 29.82 420.867 30.38 422.707 31.1C424.547 31.82 426.227 32.68 427.747 33.68C429.267 34.64 430.607 35.7 431.767 36.86L427.567 43.4ZM460.064 35.24C462.304 33.32 464.724 31.78 467.324 30.62C469.964 29.42 473.104 28.82 476.744 28.82C480.144 28.82 483.144 29.42 485.744 30.62C488.384 31.78 490.604 33.42 492.404 35.54C494.204 37.62 495.564 40.12 496.484 43.04C497.404 45.92 497.864 49.06 497.864 52.46V92H479.264V52.46C479.264 49.42 478.564 47.06 477.164 45.38C475.764 43.66 473.704 42.8 470.984 42.8C468.944 42.8 467.024 43.24 465.224 44.12C463.464 44.96 461.744 46.12 460.064 47.6V92H441.464V2.17999H460.064V35.24ZM541.613 47.48C546.893 47.48 550.693 46.22 553.013 43.7C555.333 41.18 556.493 37.66 556.493 33.14C556.493 31.14 556.193 29.32 555.593 27.68C554.993 26.04 554.073 24.64 552.833 23.48C551.633 22.28 550.093 21.36 548.213 20.72C546.373 20.08 544.173 19.76 541.613 19.76H531.053V47.48H541.613ZM541.613 4.58C547.773 4.58 553.053 5.32 557.453 6.8C561.893 8.24 565.533 10.24 568.373 12.8C571.253 15.36 573.373 18.38 574.733 21.86C576.093 25.34 576.773 29.1 576.773 33.14C576.773 37.5 576.073 41.5 574.673 45.14C573.273 48.78 571.133 51.9 568.253 54.5C565.373 57.1 561.713 59.14 557.273 60.62C552.873 62.06 547.653 62.78 541.613 62.78H531.053V92H510.773V4.58H541.613ZM640.702 29.78V92H629.182C626.862 92 625.342 90.96 624.622 88.88L623.542 85.28C622.342 86.44 621.102 87.5 619.822 88.46C618.542 89.38 617.162 90.18 615.682 90.86C614.242 91.5 612.662 92 610.942 92.36C609.262 92.76 607.422 92.96 605.422 92.96C602.022 92.96 599.002 92.38 596.362 91.22C593.762 90.02 591.562 88.36 589.762 86.24C587.962 84.12 586.602 81.62 585.682 78.74C584.762 75.86 584.302 72.7 584.302 69.26V29.78H602.902V69.26C602.902 72.34 603.602 74.72 605.002 76.4C606.402 78.08 608.462 78.92 611.182 78.92C613.222 78.92 615.122 78.5 616.882 77.66C618.682 76.78 620.422 75.6 622.102 74.12V29.78H640.702ZM671.939 2.17999V92H653.339V2.17999H671.939ZM703.111 2.17999V92H684.511V2.17999H703.111Z" fill="white"/>
<path d="M269.265 159.525C271.275 159.525 272.91 159.27 274.17 158.76C275.46 158.25 276.465 157.59 277.185 156.78C277.905 155.97 278.4 155.055 278.67 154.035C278.94 153.015 279.075 151.98 279.075 150.93C279.075 149.73 278.91 148.65 278.58 147.69C278.28 146.73 277.74 145.92 276.96 145.26C276.21 144.6 275.205 144.09 273.945 143.73C272.685 143.37 271.095 143.19 269.175 143.19H258.555V159.525H269.265ZM258.555 116.82V133.02H266.475C268.155 133.02 269.67 132.9 271.02 132.66C272.37 132.42 273.51 132 274.44 131.4C275.4 130.8 276.12 129.975 276.6 128.925C277.11 127.875 277.365 126.555 277.365 124.965C277.365 123.405 277.17 122.115 276.78 121.095C276.39 120.045 275.79 119.205 274.98 118.575C274.17 117.945 273.135 117.495 271.875 117.225C270.645 116.955 269.175 116.82 267.465 116.82H258.555ZM267.465 105.435C271.995 105.435 275.85 105.855 279.03 106.695C282.21 107.535 284.805 108.72 286.815 110.25C288.825 111.78 290.28 113.64 291.18 115.83C292.11 118.02 292.575 120.465 292.575 123.165C292.575 124.635 292.365 126.06 291.945 127.44C291.525 128.79 290.865 130.065 289.965 131.265C289.065 132.435 287.91 133.515 286.5 134.505C285.09 135.495 283.395 136.35 281.415 137.07C285.735 138.12 288.93 139.815 291 142.155C293.07 144.495 294.105 147.525 294.105 151.245C294.105 154.035 293.565 156.63 292.485 159.03C291.405 161.43 289.815 163.53 287.715 165.33C285.645 167.1 283.08 168.495 280.02 169.515C276.96 170.505 273.465 171 269.535 171H243.345V105.435H267.465ZM343.165 124.335V171H334.525C332.785 171 331.645 170.22 331.105 168.66L330.295 165.96C329.395 166.83 328.465 167.625 327.505 168.345C326.545 169.035 325.51 169.635 324.4 170.145C323.32 170.625 322.135 171 320.845 171.27C319.585 171.57 318.205 171.72 316.705 171.72C314.155 171.72 311.89 171.285 309.91 170.415C307.96 169.515 306.31 168.27 304.96 166.68C303.61 165.09 302.59 163.215 301.9 161.055C301.21 158.895 300.865 156.525 300.865 153.945V124.335H314.815V153.945C314.815 156.255 315.34 158.04 316.39 159.3C317.44 160.56 318.985 161.19 321.025 161.19C322.555 161.19 323.98 160.875 325.3 160.245C326.65 159.585 327.955 158.7 329.215 157.59V124.335H343.165ZM366.908 124.335V171H352.958V124.335H366.908ZM368.348 111.555C368.348 112.665 368.123 113.715 367.673 114.705C367.223 115.665 366.608 116.52 365.828 117.27C365.048 117.99 364.133 118.575 363.083 119.025C362.063 119.445 360.968 119.655 359.798 119.655C358.658 119.655 357.593 119.445 356.603 119.025C355.613 118.575 354.728 117.99 353.948 117.27C353.198 116.52 352.598 115.665 352.148 114.705C351.728 113.715 351.518 112.665 351.518 111.555C351.518 110.415 351.728 109.35 352.148 108.36C352.598 107.37 353.198 106.5 353.948 105.75C354.728 105 355.613 104.415 356.603 103.995C357.593 103.575 358.658 103.365 359.798 103.365C360.968 103.365 362.063 103.575 363.083 103.995C364.133 104.415 365.048 105 365.828 105.75C366.608 106.5 367.223 107.37 367.673 108.36C368.123 109.35 368.348 110.415 368.348 111.555ZM390.587 103.635V171H376.637V103.635H390.587ZM428.321 136.845C427.271 135.675 426.131 134.865 424.901 134.415C423.671 133.935 422.381 133.695 421.031 133.695C419.741 133.695 418.556 133.95 417.476 134.46C416.396 134.97 415.451 135.795 414.641 136.935C413.861 138.045 413.246 139.5 412.796 141.3C412.346 143.1 412.121 145.275 412.121 147.825C412.121 150.285 412.301 152.355 412.661 154.035C413.021 155.715 413.516 157.08 414.146 158.13C414.806 159.15 415.586 159.885 416.486 160.335C417.386 160.785 418.391 161.01 419.501 161.01C420.521 161.01 421.436 160.92 422.246 160.74C423.086 160.53 423.851 160.245 424.541 159.885C425.231 159.525 425.876 159.075 426.476 158.535C427.106 157.965 427.721 157.32 428.321 156.6V136.845ZM442.271 103.635V171H433.631C431.891 171 430.751 170.22 430.211 168.66L429.131 165.105C428.201 166.095 427.226 166.995 426.206 167.805C425.186 168.615 424.076 169.32 422.876 169.92C421.706 170.49 420.431 170.925 419.051 171.225C417.701 171.555 416.231 171.72 414.641 171.72C412.211 171.72 409.961 171.18 407.891 170.1C405.821 169.02 404.036 167.46 402.536 165.42C401.036 163.38 399.851 160.89 398.981 157.95C398.141 154.98 397.721 151.605 397.721 147.825C397.721 144.345 398.201 141.12 399.161 138.15C400.121 135.15 401.471 132.57 403.211 130.41C404.981 128.22 407.096 126.51 409.556 125.28C412.016 124.05 414.731 123.435 417.701 123.435C420.131 123.435 422.171 123.78 423.821 124.47C425.471 125.16 426.971 126.09 428.321 127.26V103.635H442.271ZM480.721 142.065C480.721 140.955 480.571 139.875 480.271 138.825C480.001 137.775 479.536 136.845 478.876 136.035C478.246 135.195 477.406 134.52 476.356 134.01C475.306 133.5 474.031 133.245 472.531 133.245C469.891 133.245 467.821 134.01 466.321 135.54C464.821 137.04 463.831 139.215 463.351 142.065H480.721ZM463.171 150.165C463.621 154.065 464.806 156.9 466.726 158.67C468.646 160.41 471.121 161.28 474.151 161.28C475.771 161.28 477.166 161.085 478.336 160.695C479.506 160.305 480.541 159.87 481.441 159.39C482.371 158.91 483.211 158.475 483.961 158.085C484.741 157.695 485.551 157.5 486.391 157.5C487.501 157.5 488.341 157.905 488.911 158.715L492.961 163.71C491.521 165.36 489.961 166.71 488.281 167.76C486.631 168.78 484.921 169.59 483.151 170.19C481.411 170.76 479.656 171.15 477.886 171.36C476.146 171.6 474.481 171.72 472.891 171.72C469.621 171.72 466.546 171.195 463.666 170.145C460.816 169.065 458.311 167.475 456.151 165.375C454.021 163.275 452.326 160.665 451.066 157.545C449.836 154.425 449.221 150.795 449.221 146.655C449.221 143.535 449.746 140.58 450.796 137.79C451.876 135 453.406 132.555 455.386 130.455C457.396 128.355 459.811 126.69 462.631 125.46C465.481 124.23 468.691 123.615 472.261 123.615C475.351 123.615 478.171 124.095 480.721 125.055C483.301 126.015 485.506 127.41 487.336 129.24C489.196 131.07 490.636 133.32 491.656 135.99C492.706 138.63 493.231 141.63 493.231 144.99C493.231 146.04 493.186 146.895 493.096 147.555C493.006 148.215 492.841 148.74 492.601 149.13C492.361 149.52 492.031 149.79 491.611 149.94C491.221 150.09 490.711 150.165 490.081 150.165H463.171ZM513.261 131.535C514.701 129.015 516.351 127.035 518.211 125.595C520.101 124.155 522.261 123.435 524.691 123.435C526.791 123.435 528.501 123.93 529.821 124.92L528.921 135.18C528.771 135.84 528.516 136.29 528.156 136.53C527.826 136.77 527.361 136.89 526.761 136.89C526.521 136.89 526.206 136.875 525.816 136.845C525.426 136.815 525.021 136.785 524.601 136.755C524.181 136.695 523.746 136.65 523.296 136.62C522.876 136.56 522.486 136.53 522.126 136.53C520.086 136.53 518.451 137.07 517.221 138.15C516.021 139.23 515.001 140.73 514.161 142.65V171H500.211V124.335H508.491C509.181 124.335 509.751 124.395 510.201 124.515C510.681 124.635 511.071 124.83 511.371 125.1C511.701 125.34 511.941 125.67 512.091 126.09C512.271 126.51 512.421 127.02 512.541 127.62L513.261 131.535Z" fill="#E07133"/>
</svg>
