<svg class="animated" id="freepik_stories-done" xmlns="http://www.w3.org/2000/svg" viewBox="0 0 500 500" version="1.1" xmlnsXlink="http://www.w3.org/1999/xlink" xmlnssvgjs="http://svgjs.com/svgjs"><style>svg#freepik_stories-done:not(.animated) .animable {opacity: 0;}svg#freepik_stories-done.animated #freepik--speech-bubble--inject-4 {animation: 1s 1 forwards cubic-bezier(.36,-0.01,.5,1.38) fadeIn,1.5s Infinite  linear floating;animation-delay: 0s,1s;}svg#freepik_stories-done.animated #freepik--Character--inject-4 {animation: 0.6s 1 forwards cubic-bezier(.36,-0.01,.5,1.38) slideDown;animation-delay: 0s;}            @keyframes fadeIn {                0% {                    opacity: 0;                }                100% {                    opacity: 1;                }            }                    @keyframes floating {                0% {                    opacity: 1;                    transform: translateY(0px);                }                50% {                    transform: translateY(-10px);                }                100% {                    opacity: 1;                    transform: translateY(0px);                }            }                    @keyframes slideDown {                0% {                    opacity: 0;                    transform: translateY(-30px);                }                100% {                    opacity: 1;                    transform: translateY(0);                }            }        </style><g id="freepik--background-complete--inject-4" class="animable" style="transform-origin: 265.045px 258.103px;"><rect x="65.14" y="40.15" width="84.91" height="88.51" style="fill: rgb(224, 224, 224); transform-origin: 107.595px 84.405px;" id="eliqaos4qhr7n" class="animable"></rect><rect x="59.39" y="40.15" width="84.91" height="88.51" style="fill: rgb(235, 235, 235); transform-origin: 101.845px 84.405px;" id="el0eunorxz7jc" class="animable"></rect><rect x="70.81" y="52.05" width="62.08" height="64.71" style="fill: rgb(250, 250, 250); transform-origin: 101.85px 84.405px;" id="elpetcuo392wj" class="animable"></rect><path d="M70.81,117.19A12.28,12.28,0,0,1,69.26,119c-1,1-2.4,2.45-4,4s-3,2.92-4,3.89a12.39,12.39,0,0,1-1.77,1.52A11.3,11.3,0,0,1,61,126.6c1-1,2.4-2.46,4-4s3-2.92,4.05-3.9A10.6,10.6,0,0,1,70.81,117.19Z" style="fill: rgb(224, 224, 224); transform-origin: 65.15px 122.8px;" id="elooj4et8ktxs" class="animable"></path><path d="M132.89,117a12.28,12.28,0,0,1,1.76,1.55c1,1,2.45,2.4,4,4s2.91,3,3.89,4a11.76,11.76,0,0,1,1.52,1.77,11,11,0,0,1-1.76-1.54c-1-1-2.45-2.4-4-4s-2.91-3-3.89-4A11.1,11.1,0,0,1,132.89,117Z" style="fill: rgb(224, 224, 224); transform-origin: 138.475px 122.66px;" id="el2wr0j1aiizi" class="animable"></path><path d="M132.72,52.22a11.53,11.53,0,0,1,1.55-1.76c1-1,2.39-2.45,3.95-4s3-2.92,4.05-3.89a12.08,12.08,0,0,1,1.78-1.52,11.81,11.81,0,0,1-1.55,1.75c-1,1-2.39,2.46-4,4s-3,2.92-4.06,3.9A11.36,11.36,0,0,1,132.72,52.22Z" style="fill: rgb(224, 224, 224); transform-origin: 138.385px 46.635px;" id="elw9gft30cep" class="animable"></path><path d="M70.64,52.38a12.28,12.28,0,0,1-1.76-1.55c-1-1-2.46-2.4-4-4s-2.92-3-3.9-4a11.26,11.26,0,0,1-1.51-1.77,11.89,11.89,0,0,1,1.75,1.54c1,1,2.46,2.4,4,4s2.92,3,3.9,4A11.1,11.1,0,0,1,70.64,52.38Z" style="fill: rgb(224, 224, 224); transform-origin: 65.055px 46.72px;" id="elyrav9okuvt" class="animable"></path><path d="M132.72,116.76s0-.11,0-.31,0-.52,0-.9c0-.81,0-2,0-3.49,0-3.06,0-7.52,0-13.19,0-11.33-.06-27.48-.11-46.82l.21.2-61.91,0h0l.23-.23c0,23.75,0,46,0,64.71l-.2-.2,44.84.1,12.58.06,3.33,0h0l-3.28,0-12.55,0-45,.1h-.2v-.2c0-18.74,0-41,0-64.71v-.24h.24l61.91,0h.2v.21c0,19.39-.08,35.59-.1,47,0,5.65,0,10.09-.06,13.14,0,1.5,0,2.66,0,3.45,0,.38,0,.67,0,.88S132.72,116.76,132.72,116.76Z" style="fill: rgb(224, 224, 224); transform-origin: 101.835px 84.215px;" id="elxzboqvcpbu" class="animable"></path><path d="M87.19,79.08s-1.33,16,16,16C103.21,86.55,96.16,79.8,87.19,79.08Z" style="fill: rgb(235, 235, 235); transform-origin: 95.1782px 87.08px;" id="el7pke5xbdeh5" class="animable"></path><path d="M118.94,79.09s-16-1.33-16,16C111.47,95.12,118.22,88.06,118.94,79.09Z" style="fill: rgb(235, 235, 235); transform-origin: 110.94px 87.0783px;" id="elz7reyy5jrla" class="animable"></path><path d="M102.44,70.32s-13.09,11.75.72,24.78C109.58,88.3,109,77.63,102.44,70.32Z" style="fill: rgb(224, 224, 224); transform-origin: 102.255px 82.71px;" id="elfvnwrjacwf5" class="animable"></path><path d="M368.66,364.26a40.91,40.91,0,0,0-17.45-6c-2.85-.29-6-.21-8.26,1.52a1.73,1.73,0,0,0-.85,1.51,1.86,1.86,0,0,0,.81,1c7.1,5.41,17.84,6.1,25.75,1.95" style="fill: rgb(224, 224, 224); transform-origin: 355.38px 362.525px;" id="el1gy7arzdb78" class="animable"></path><path d="M368.21,363.76a85.06,85.06,0,0,1-11.27-9.91,28.5,28.5,0,0,1-7.07-13.07c-.3-1.49-.39-3.19.56-4.37,9,7,16,16.09,17.78,27.35" style="fill: rgb(224, 224, 224); transform-origin: 358.937px 350.085px;" id="eldu55ki4v0ca" class="animable"></path><path d="M368.57,364.19a40.89,40.89,0,0,1,.2-14.8c1.13-4.83,3.76-9.45,7.89-12.21,1.55,3.63.88,7.81-.21,11.6a56.23,56.23,0,0,1-7.82,16.46" style="fill: rgb(224, 224, 224); transform-origin: 372.781px 351.21px;" id="el3zfy5ylnyyk" class="animable"></path><path d="M377.37,380c-5.34.65-10,3.47-14,7.08a26.56,26.56,0,0,0-8,13.74c5.25-.32,9.7-4,12.92-8.16s5.47-8.7,9-12.58" style="fill: rgb(224, 224, 224); transform-origin: 366.37px 390.41px;" id="elreklg4kxbta" class="animable"></path><path d="M379.29,382.49a34.49,34.49,0,0,1,4-32.64c3.05,10.83,1.93,23.07-4,32.64" style="fill: rgb(224, 224, 224); transform-origin: 380.913px 366.17px;" id="elf7qssjtq7sq" class="animable"></path><path d="M390.92,396.35a24.94,24.94,0,0,0-23.86,13.74c-.3.59-.56,1.34-.16,1.87a1.76,1.76,0,0,0,1.58.46c4.7-.3,8.87-3.13,12.31-6.35s6.44-6.95,10.24-9.73" style="fill: rgb(224, 224, 224); transform-origin: 378.863px 404.379px;" id="elrmyc8h4eq0d" class="animable"></path><path d="M390.55,395.6a44.43,44.43,0,0,1-.44-24.83c.87-3.2,2.34-6.56,5.3-8.06a1,1,0,0,1,.81-.14,1.07,1.07,0,0,1,.51.59,15,15,0,0,1,1.25,7.12,45,45,0,0,1-1.12,7.21c-.93,4.41-1.42,9.15-3.84,12.95a25.08,25.08,0,0,0-1.54,2.84c-.46,1-.46,1.31-.88,2.08" style="fill: rgb(224, 224, 224); transform-origin: 393.285px 379.069px;" id="el91ptw4ookg4" class="animable"></path><path d="M421.35,400.19c-2.28-8.69.14-19.21,5.61-26.33.41-.52.94-1.08,1.6-1,1,.09,1.27,1.44,1.22,2.45a47.47,47.47,0,0,1-8.43,24.9" style="fill: rgb(224, 224, 224); transform-origin: 425.14px 386.531px;" id="el75ov0krqw3y" class="animable"></path><path d="M424.13,402.08c10.55,2.75,22.65.08,31.42-6.39a25.47,25.47,0,0,0-17-2.08c-5.68,1.3-10.87,3.84-14.41,8.47" style="fill: rgb(224, 224, 224); transform-origin: 439.84px 398.072px;" id="elcybqa0ikesd" class="animable"></path><path d="M426.47,396.3c5.91-9.63,17.23-15.91,28.52-16.48-1.3,4.59-5.08,8.15-9.33,10.31s-9,3.09-13.69,4c-1.82.35-4.32.74-5.5,2.17" style="fill: rgb(224, 224, 224); transform-origin: 440.73px 388.06px;" id="el1ubntq03xlg" class="animable"></path><path d="M421.94,368.26c1.6-5.48,3.21-11,3.65-16.7s-.38-11.63-3.33-16.52c-5.52,10.68-6.07,23.15-.49,33.79" style="fill: rgb(224, 224, 224); transform-origin: 421.772px 351.935px;" id="elfwpn6arvhyd" class="animable"></path><path d="M440.52,358.87c6.45-11.73,19.61-21.09,32.93-22.41-5.14,12.8-19.15,22.68-32.93,22.41" style="fill: rgb(224, 224, 224); transform-origin: 456.985px 347.668px;" id="elg68rw6rxgc" class="animable"></path><path d="M436.46,361.17c9.62,1.46,17.82,7.61,26.81,11.33a11.88,11.88,0,0,0,6.06,1.16,4.74,4.74,0,0,0,3-8.39,13,13,0,0,0-4.4-2.67c-9.8-4.08-20.3-4.18-30.62-1.71" style="fill: rgb(224, 224, 224); transform-origin: 455.253px 366.467px;" id="el7fuld6z3ohp" class="animable"></path><path d="M430.89,367.92c2.18.62,2.92,1.75,4.65,3.22a50.12,50.12,0,0,0,20.33,10.44c.78.19,1.79.27,2.18-.43s-.09-1.36-.53-1.9a28,28,0,0,0-12.27-8.34c-4.7-1.74-8.76-3.85-14.36-3.4" style="fill: rgb(224, 224, 224); transform-origin: 444.542px 374.58px;" id="eljgnxxxnaw7" class="animable"></path><path d="M424.6,327.15a38.46,38.46,0,0,0,29.51,10,2,2,0,0,0,1.34-.48c.74-.81-.15-2.06-1-2.73-8.68-6.76-19.18-9.57-29.84-6.83" style="fill: rgb(224, 224, 224); transform-origin: 440.163px 331.688px;" id="elirzccistc6" class="animable"></path><path d="M432.05,324.43a41.12,41.12,0,0,1,36.82-6.08c-4.64,4.57-11.07,7-17.55,7.7a55.47,55.47,0,0,1-19.27-1.62" style="fill: rgb(224, 224, 224); transform-origin: 450.46px 321.352px;" id="elcyfmv5yswtl" class="animable"></path><path d="M429.09,305.7c-.85-8.66-.3-15.49-.9-24.19,0-.7-.19-1.53-.84-1.78-.91-.35-1.66.76-2,1.68a27.74,27.74,0,0,0,3.69,24.1" style="fill: rgb(224, 224, 224); transform-origin: 426.588px 292.682px;" id="elu1nkht9qogl" class="animable"></path><path d="M428.47,306.65c5.87-3.63,10.27-8.36,14.34-13.93,2.83-3.88,5.22-8.52,4.58-13.28-4-.08-7.76,2.11-10.35,5.14a29,29,0,0,0-5.27,10.61c-1.15,3.81-1.95,7.72-3.3,11.46" style="fill: rgb(224, 224, 224); transform-origin: 437.982px 293.044px;" id="el5j6j331lx97" class="animable"></path><path d="M442.56,302.74a115.62,115.62,0,0,0,35.29-20.81c-4.21-1.7-9-.68-13.25,1-9.63,3.89-17.5,10.45-22.22,19.69" style="fill: rgb(224, 224, 224); transform-origin: 460.115px 291.898px;" id="el1gpcflfkjdl" class="animable"></path><path d="M432.43,311.39c6.52.71,13.14,1.18,19.6.1s12.36-3.58,18.29-6.08a2.17,2.17,0,0,0,1.25-1,1.43,1.43,0,0,0-.45-1.56,3.68,3.68,0,0,0-1.56-.73c-6.45-1.81-13.42-1-19.77,1.18a91.42,91.42,0,0,0-17.36,8" style="fill: rgb(224, 224, 224); transform-origin: 452.037px 306.625px;" id="elknu9n5flqb" class="animable"></path><path d="M395.23,327.45c-4.44-9-4.15-19.44-.32-28.69,2.71,4.12,3,9.36,2.54,14.27s-2,9.94-2.08,14.87" style="fill: rgb(224, 224, 224); transform-origin: 394.799px 313.33px;" id="elx0zg288qcb" class="animable"></path><path d="M377.47,318.49a40,40,0,0,0-29.73,12.67c5.54.87,11.24-.56,16.28-3s9.52-5.91,14-9.34" style="fill: rgb(224, 224, 224); transform-origin: 362.88px 324.951px;" id="elcykmmq31gep" class="animable"></path><path d="M365.54,314.5c-5.43-.44-10.66-1.11-15.88.49s-10,5.23-12.09,10.26a28.72,28.72,0,0,0,14.88-2.81,85.82,85.82,0,0,0,13.09-7.94" style="fill: rgb(224, 224, 224); transform-origin: 351.555px 319.66px;" id="eleelrf6oc9o9" class="animable"></path><path d="M383.21,314.68c-4.88-3.2-9.9-6.45-15.58-7.78s-12.28-.35-16.25,3.94c4.61,2.7,10.19,3,15.53,3s11.88-.07,16.91,1.71" style="fill: rgb(224, 224, 224); transform-origin: 367.6px 310.949px;" id="elr9v17n2rmes" class="animable"></path><path d="M383.24,314.94c-8.35-8.2-11.51-22.93-8.15-34.13a52,52,0,0,1,8.15,34.13" style="fill: rgb(224, 224, 224); transform-origin: 378.66px 297.875px;" id="el242txrmt72z" class="animable"></path><path d="M406.2,291.71c1.58-3.66,2.68-7.5,4.1-11.23a32.26,32.26,0,0,1,5.83-10.35,15.4,15.4,0,0,1,10.35-5.36,41.7,41.7,0,0,1-20.07,27" style="fill: rgb(224, 224, 224); transform-origin: 416.34px 278.27px;" id="el33v6or3oep8" class="animable"></path><path d="M402.05,296.55c-2.61-3.58-5.62-8.45-9.15-11.13s-8.14-4.3-12.45-3.27a29,29,0,0,0,21.6,14.4" style="fill: rgb(224, 224, 224); transform-origin: 391.25px 289.193px;" id="elb0pgjo3g62" class="animable"></path><path d="M402.88,292c-1.71-4.34-3.43-8.73-4.12-13.34s-.27-9.54,2.09-13.56c4.58,8.66,6.06,18,2.26,27" style="fill: rgb(224, 224, 224); transform-origin: 401.868px 278.6px;" id="el67zb38q0bhi" class="animable"></path><path d="M406.24,265.11c2.6-8.59,10.46-14.92,18.95-17.82a7.21,7.21,0,0,1,3.33-.5,2.91,2.91,0,0,1,2.45,2.05c.31,1.46-.9,2.77-2,3.74a64.63,64.63,0,0,1-22.69,12.53" style="fill: rgb(224, 224, 224); transform-origin: 418.63px 255.936px;" id="el383i6z9ld6r" class="animable"></path><path d="M406.34,258.08c.33-5.53.67-11.15,2.47-16.4s5.28-10.17,10.33-12.46c.86,5.59-1.61,11.15-4.59,16s-6.56,9.35-8.35,14.72" style="fill: rgb(224, 224, 224); transform-origin: 412.757px 244.58px;" id="elxqdigbptktr" class="animable"></path><path d="M406.2,261.9c-2.14-6.26-2.37-14.21-6.11-19.67-2.62-3.81-6.82-6.41-9.08-10.44a15.86,15.86,0,0,0,.53,11.85,34.3,34.3,0,0,0,6.93,9.93c2.78,3,5.15,5.19,7.73,8.33" style="fill: rgb(224, 224, 224); transform-origin: 398.155px 246.845px;" id="els5t6r5tzlms" class="animable"></path><path d="M406.24,446.23c-.16,0-.31-41.76-.32-93.25s.11-93.27.28-93.27.31,41.75.32,93.27S406.41,446.23,406.24,446.23Z" style="fill: rgb(224, 224, 224); transform-origin: 406.22px 352.97px;" id="elelt08hagebv" class="animable"></path><path d="M442.73,321.15a8.9,8.9,0,0,1-1.57.59l-4.32,1.46c-3.64,1.24-8.65,3-14.08,5.26s-10.45,4.18-13.34,6.68a9.93,9.93,0,0,0-2.68,3.55c-.41,1-.48,1.58-.54,1.57a1.34,1.34,0,0,1,0-.44,6.74,6.74,0,0,1,.31-1.22,9.42,9.42,0,0,1,2.61-3.78,23.37,23.37,0,0,1,5.79-3.59c2.31-1.08,4.88-2.21,7.6-3.33,5.45-2.23,10.5-4,14.18-5.11,1.84-.57,3.34-1,4.39-1.28A8.87,8.87,0,0,1,442.73,321.15Z" style="fill: rgb(224, 224, 224); transform-origin: 424.456px 330.705px;" id="elhbbavqpmw76" class="animable"></path><path d="M454.69,291.77s-.13.18-.44.47l-1.34,1.26-5,4.54-16.65,14.83c-6.5,5.78-12.11,11.31-16,15.47-1.95,2.08-3.49,3.8-4.54,5-.48.56-.88,1-1.21,1.38s-.43.48-.45.46a3.51,3.51,0,0,1,.36-.53c.25-.34.62-.84,1.12-1.46,1-1.25,2.49-3,4.4-5.14a209.19,209.19,0,0,1,15.92-15.63c6.52-5.78,12.46-11,16.77-14.7l5.13-4.4,1.41-1.17A2.82,2.82,0,0,1,454.69,291.77Z" style="fill: rgb(224, 224, 224); transform-origin: 431.875px 313.476px;" id="eln7fzjckoo3g" class="animable"></path><path d="M424.25,318.75c-.17-.08,1.18-3.21,2.54-7.18s2-7.31,2.18-7.28-.23,3.46-1.61,7.48a50.17,50.17,0,0,1-2,5A7.94,7.94,0,0,1,424.25,318.75Z" style="fill: rgb(224, 224, 224); transform-origin: 426.623px 311.52px;" id="elwal88j6w42b" class="animable"></path><path d="M406.28,344a7.25,7.25,0,0,1-1-1.16l-2.57-3.29c-2.15-2.79-5.13-6.63-8.47-10.84s-6.41-8-8.63-10.71L383,314.77a7.28,7.28,0,0,1-.9-1.24,7.57,7.57,0,0,1,1.08,1.09c.67.72,1.62,1.79,2.77,3.12,2.31,2.67,5.44,6.4,8.78,10.62s6.28,8.1,8.35,10.95c1,1.43,1.85,2.59,2.41,3.41A8.69,8.69,0,0,1,406.28,344Z" style="fill: rgb(224, 224, 224); transform-origin: 394.19px 328.765px;" id="el5lgecqu3xf2" class="animable"></path><path d="M398.28,333.75c-.1.11-2.23-2.43-3.35-6.27a17.88,17.88,0,0,1-.76-6.33l.26,0c-.11.48-.2.74-.25.73s-.05-.28,0-.77l.27,0a27.84,27.84,0,0,0,1.07,6.15C396.59,331,398.44,333.65,398.28,333.75Z" style="fill: rgb(224, 224, 224); transform-origin: 396.214px 327.432px;" id="el3zun1ly1m2b" class="animable"></path><path d="M388,320.76a10.67,10.67,0,0,0-2.34-1.36,15.59,15.59,0,0,0-6.5-.52,39.65,39.65,0,0,0-6.54,1.06,18.08,18.08,0,0,1-2.69.64,9.43,9.43,0,0,1,2.58-1.05,29.47,29.47,0,0,1,6.61-1.25,14.21,14.21,0,0,1,6.7.72A4.09,4.09,0,0,1,388,320.76Z" style="fill: rgb(224, 224, 224); transform-origin: 378.965px 319.458px;" id="ela7dkjh1j1pv" class="animable"></path><path d="M385.5,317.61c0,.09-1.36-.55-3.58-1.31a36,36,0,0,0-18.07-1.37c-2.31.41-3.71.84-3.74.74a3.16,3.16,0,0,1,.95-.4,22.16,22.16,0,0,1,2.71-.76,31.85,31.85,0,0,1,18.29,1.39,23.59,23.59,0,0,1,2.56,1.16C385.21,317.38,385.52,317.57,385.5,317.61Z" style="fill: rgb(224, 224, 224); transform-origin: 372.805px 315.693px;" id="elgl88twaygas" class="animable"></path><path d="M406.2,304.29c-.16,0-1.33-4-2.61-9.08s-2.2-9.19-2-9.23,1.33,4,2.61,9.08S406.36,304.25,406.2,304.29Z" style="fill: rgb(224, 224, 224); transform-origin: 403.891px 295.135px;" id="el8u2aq4p2o33" class="animable"></path><path d="M406.37,304.29c-.18.06-.94-2.66-2.9-5.44a24,24,0,0,0-4.27-4.4,4.05,4.05,0,0,1,1.65.85,13.29,13.29,0,0,1,3.11,3.21A12.17,12.17,0,0,1,406.37,304.29Z" style="fill: rgb(224, 224, 224); transform-origin: 402.785px 299.37px;" id="elo52cb8yd7f8" class="animable"></path><path d="M406.24,424c-.06,0-.19-1-.66-2.78a39.16,39.16,0,0,0-2.79-7.23c-2.88-5.89-8.13-13.37-14.8-20.85-3.31-3.78-6.51-7.34-9.23-10.75a76,76,0,0,1-6.61-9.53,45.72,45.72,0,0,1-3.33-7.06c-.31-.88-.53-1.55-.66-2A3.31,3.31,0,0,1,368,363c.06,0,.36,1,1.05,2.66a52.75,52.75,0,0,0,3.48,6.94,79.56,79.56,0,0,0,6.67,9.39c2.73,3.37,5.94,6.92,9.25,10.7,6.69,7.51,11.93,15.07,14.74,21.07a36.15,36.15,0,0,1,2.63,7.36,17.06,17.06,0,0,1,.37,2.09A3.42,3.42,0,0,1,406.24,424Z" style="fill: rgb(224, 224, 224); transform-origin: 387.122px 393.5px;" id="elbpelc28shc7" class="animable"></path><path d="M439.22,386.73a16.71,16.71,0,0,1-1.73,1,37.2,37.2,0,0,0-4.48,3,50.74,50.74,0,0,0-5.89,5.37c-2.07,2.18-4.2,4.72-6.37,7.43-4.34,5.45-8.4,10.27-10.83,14.12-1.24,1.91-2.14,3.52-2.73,4.65a13.1,13.1,0,0,1-.95,1.74,1.72,1.72,0,0,1,.16-.49c.13-.31.31-.78.58-1.35a46.5,46.5,0,0,1,2.57-4.78c2.37-3.94,6.4-8.83,10.73-14.27,2.18-2.72,4.33-5.26,6.44-7.44a48.52,48.52,0,0,1,6-5.32,30.86,30.86,0,0,1,4.63-2.83c.57-.29,1-.47,1.35-.6A1.39,1.39,0,0,1,439.22,386.73Z" style="fill: rgb(224, 224, 224); transform-origin: 422.73px 405.385px;" id="eljo02zwbn39" class="animable"></path><path d="M439.86,398.81a24.13,24.13,0,0,1-3.65.53,48.82,48.82,0,0,0-8.66,1.7,26.27,26.27,0,0,0-7.76,4.07c-1.79,1.39-2.63,2.53-2.71,2.46a2.66,2.66,0,0,1,.54-.84,14.33,14.33,0,0,1,1.9-2,23.48,23.48,0,0,1,7.84-4.31,39.73,39.73,0,0,1,8.81-1.56A20.07,20.07,0,0,1,439.86,398.81Z" style="fill: rgb(224, 224, 224); transform-origin: 428.47px 403.161px;" id="el8w7dflqqy0m" class="animable"></path><path d="M418.14,406.25c-.19-.11,1.46-2.63,2.73-6s1.48-6.4,1.7-6.37a5.89,5.89,0,0,1-.06,2,21.19,21.19,0,0,1-1.07,4.62,22,22,0,0,1-2.12,4.23A5.92,5.92,0,0,1,418.14,406.25Z" style="fill: rgb(224, 224, 224); transform-origin: 420.377px 400.065px;" id="el898czf3tfxa" class="animable"></path><path d="M449.9,354.29a3.71,3.71,0,0,1-.59.31l-1.72.78c-.75.32-1.66.73-2.69,1.27s-2.23,1.08-3.49,1.84l-2,1.13c-.69.4-1.38.87-2.1,1.32-1.47.9-2.94,2-4.51,3.11a77.79,77.79,0,0,0-17.38,18c-1.06,1.61-2.11,3.12-2.95,4.62-.43.74-.88,1.44-1.25,2.14l-1.07,2c-.71,1.28-1.21,2.5-1.71,3.55s-.89,2-1.18,2.74l-.72,1.74a2.94,2.94,0,0,1-.29.6,2.67,2.67,0,0,1,.17-.64c.17-.47.37-1.06.62-1.79a29.82,29.82,0,0,1,1.09-2.78c.47-1.07.95-2.31,1.64-3.61l1-2.06c.36-.71.8-1.42,1.23-2.18.82-1.52,1.86-3,2.92-4.67a74.53,74.53,0,0,1,17.5-18.11c1.6-1.12,3.09-2.21,4.58-3.09.74-.45,1.43-.91,2.13-1.3l2-1.11c1.27-.73,2.5-1.26,3.55-1.76a28.58,28.58,0,0,1,2.74-1.19l1.77-.67A2.56,2.56,0,0,1,449.9,354.29Z" style="fill: rgb(224, 224, 224); transform-origin: 428.075px 376.865px;" id="el34qkt3c55ku" class="animable"></path><path d="M423.8,371.77a4.23,4.23,0,0,1,1.43-2.13,9,9,0,0,1,5.79-2.22,15.59,15.59,0,0,1,6.08,1.19,8.93,8.93,0,0,1,2.3,1.11A13.12,13.12,0,0,1,437,369a18.59,18.59,0,0,0-5.93-1,9.39,9.39,0,0,0-5.52,1.94A18,18,0,0,0,423.8,371.77Z" style="fill: rgb(224, 224, 224); transform-origin: 431.6px 369.595px;" id="elal2h3lnhvy8" class="animable"></path><path d="M419.9,375.8c-.17-.09,1.3-2.25,1.64-5.34s-.55-5.53-.37-5.58.4.54.68,1.56a11,11,0,0,1-.93,8C420.41,375.36,420,375.84,419.9,375.8Z" style="fill: rgb(224, 224, 224); transform-origin: 421.052px 370.34px;" id="eldywhr7dxpe" class="animable"></path><path d="M377.4,430c.9,16,5.71,32.19,13.11,48.6h32.16C429.73,462.3,434.2,446.1,435,430Z" style="fill: rgb(224, 224, 224); transform-origin: 406.2px 454.3px;" id="elaqe09vf62rd" class="animable"></path><path d="M429.79,455.77c0,.17-10.59.31-23.66.31s-23.65-.14-23.65-.31,10.59-.3,23.65-.3S429.79,455.61,429.79,455.77Z" style="fill: rgb(250, 250, 250); transform-origin: 406.135px 455.775px;" id="el0mtie1sj1wwe" class="animable"></path><path d="M429.07,461.55c0,.17-9.93.31-22.17.31s-22.18-.14-22.18-.31,9.93-.3,22.18-.3S429.07,461.39,429.07,461.55Z" style="fill: rgb(250, 250, 250); transform-origin: 406.895px 461.555px;" id="elhhvyyslu1pr" class="animable"></path><path d="M391,440.43a91.66,91.66,0,0,1,0,14.82c-.17,0-.3-3.32-.3-7.41S390.86,440.43,391,440.43Z" style="fill: rgb(250, 250, 250); transform-origin: 391px 447.84px;" id="elp7vhmiipi1p" class="animable"></path><path d="M408.26,440.43c.17,0,.3,3.43.3,7.67s-.13,7.67-.3,7.67-.3-3.43-.3-7.67S408.09,440.43,408.26,440.43Z" style="fill: rgb(250, 250, 250); transform-origin: 408.26px 448.1px;" id="elld6rtaa8jf" class="animable"></path><path d="M424.44,440.3c.17,0,.3,3.5.3,7.82s-.13,7.83-.3,7.83-.3-3.5-.3-7.83S424.27,440.3,424.44,440.3Z" style="fill: rgb(250, 250, 250); transform-origin: 424.44px 448.125px;" id="eljrfz9orkxy" class="animable"></path><path d="M434,440.43c0,.17-12.42.3-27.74.3s-27.74-.13-27.74-.3,12.41-.3,27.74-.3S434,440.26,434,440.43Z" style="fill: rgb(250, 250, 250); transform-origin: 406.26px 440.43px;" id="el2rkocvdtyz4" class="animable"></path><rect x="52.24" y="281.23" width="364.48" height="11.23" style="fill: rgb(235, 235, 235); transform-origin: 234.48px 286.845px;" id="el2naa6xmyz2a" class="animable"></rect><polygon points="83.77 291.08 56.46 478.55 62.32 478.55 96 292.46 83.77 291.08" style="fill: rgb(235, 235, 235); transform-origin: 76.23px 384.815px;" id="el32yt0p7bpwe" class="animable"></polygon><polygon points="390.98 289.89 419.79 478.55 413.94 478.55 378.74 291.61 390.98 289.89" style="fill: rgb(235, 235, 235); transform-origin: 399.265px 384.22px;" id="elv8ausjx7pc" class="animable"></polygon><path d="M66.08,236v25.28H61.86V264h4.22v16.92H145V265.52h-5.84v-3.36H145v-5h2.6v-2.28H144.5V236Z" style="fill: rgb(245, 245, 245); transform-origin: 104.73px 258.46px;" id="elswnaqy5c4a" class="animable"></path><polygon points="124.03 236.04 124.03 280.63 144.98 280.63 144.98 265.24 139.14 265.24 139.14 262.17 144.98 262.27 144.98 257.24 147.63 257.24 147.58 254.64 144.5 254.57 144.5 235.97 124.03 236.04" style="fill: rgb(224, 224, 224); transform-origin: 135.83px 258.3px;" id="el10m7510hdg3" class="animable"></polygon><path d="M125.52,263.63c0,.16-14.27.28-31.88.28s-31.89-.12-31.89-.28,14.28-.28,31.89-.28S125.52,263.48,125.52,263.63Z" style="fill: rgb(224, 224, 224); transform-origin: 93.635px 263.63px;" id="elnnuvgmfhq4t" class="animable"></path><path d="M125.52,261.06c0,.16-14.27.28-31.88.28s-31.89-.12-31.89-.28,14.28-.28,31.89-.28S125.52,260.91,125.52,261.06Z" style="fill: rgb(224, 224, 224); transform-origin: 93.635px 261.06px;" id="elpkjf76n0r3" class="animable"></path><path d="M129.62,254.15c0,.16-14.28.28-31.88.28s-31.89-.12-31.89-.28,14.27-.28,31.89-.28S129.62,254,129.62,254.15Z" style="fill: rgb(224, 224, 224); transform-origin: 97.735px 254.15px;" id="elr69birh4719" class="animable"></path><path d="M130,273c0,.16-14.27.29-31.88.29s-31.89-.13-31.89-.29,14.27-.28,31.89-.28S130,272.83,130,273Z" style="fill: rgb(224, 224, 224); transform-origin: 98.115px 273.005px;" id="el1lcdbjgmh0m" class="animable"></path><rect x="137.07" y="219.04" width="13.76" height="16.36" style="fill: rgb(245, 245, 245); transform-origin: 143.95px 227.22px;" id="el7g0o63j4a5e" class="animable"></rect><rect x="75.36" y="217.97" width="62.18" height="18.45" style="fill: rgb(224, 224, 224); transform-origin: 106.45px 227.195px;" id="elygnh96d9xm" class="animable"></rect><path d="M151.24,219.53H135.87V218h15.37a.78.78,0,0,1,.78.78h0A.78.78,0,0,1,151.24,219.53Z" style="fill: rgb(224, 224, 224); transform-origin: 143.945px 218.765px;" id="eljx5exsl1uzq" class="animable"></path><path d="M151.24,236.43H135.87v-1.56h15.37a.78.78,0,0,1,.78.78h0A.78.78,0,0,1,151.24,236.43Z" style="fill: rgb(224, 224, 224); transform-origin: 143.945px 235.65px;" id="elm4cu8iwntli" class="animable"></path><rect x="125.31" y="217.97" width="7.35" height="18.45" style="fill: rgb(235, 235, 235); transform-origin: 128.985px 227.195px;" id="ele8b0qsu52uc" class="animable"></rect><rect x="81.28" y="218.18" width="7.35" height="18.45" style="fill: rgb(235, 235, 235); transform-origin: 84.955px 227.405px;" id="eluwm7rsfc21" class="animable"></rect><path d="M150.83,221.75s-3,.08-6.65.08-6.66,0-6.66-.08,3-.09,6.66-.09S150.83,221.7,150.83,221.75Z" style="fill: rgb(224, 224, 224); transform-origin: 144.175px 221.745px;" id="elgcaovzvyo0d" class="animable"></path><path d="M150.83,224.2s-3,.08-6.65.08-6.66,0-6.66-.08,3-.08,6.66-.08S150.83,224.15,150.83,224.2Z" style="fill: rgb(224, 224, 224); transform-origin: 144.175px 224.2px;" id="elwru89dtaax" class="animable"></path><path d="M150.83,227.22s-3,.08-6.65.08-6.66,0-6.66-.08,3-.08,6.66-.08S150.83,227.17,150.83,227.22Z" style="fill: rgb(224, 224, 224); transform-origin: 144.175px 227.22px;" id="eli9xhjcxeqd8" class="animable"></path><path d="M150.83,230.24s-3,.08-6.65.08-6.66,0-6.66-.08,3-.08,6.66-.08S150.83,230.19,150.83,230.24Z" style="fill: rgb(224, 224, 224); transform-origin: 144.175px 230.24px;" id="elvzbwn3vs05o" class="animable"></path><path d="M150.83,233.26s-3,.08-6.65.08-6.66,0-6.66-.08,3-.08,6.66-.08S150.83,233.21,150.83,233.26Z" style="fill: rgb(224, 224, 224); transform-origin: 144.175px 233.26px;" id="el17l2sjp6tq4" class="animable"></path><rect x="93.38" y="225.56" width="27.97" height="3.32" style="fill: rgb(235, 235, 235); transform-origin: 107.365px 227.22px;" id="el0gl0mf75yj3v" class="animable"></rect><polygon points="124.48 200.06 132.22 218.24 127.24 218.24 123.8 208.53 124.48 200.06" style="fill: rgb(224, 224, 224); transform-origin: 128.01px 209.15px;" id="elfk9ftw9363c" class="animable"></polygon><polygon points="100.72 183.62 97.73 218.24 123.02 218.24 125.8 183.62 100.72 183.62" style="fill: rgb(235, 235, 235); transform-origin: 111.765px 200.93px;" id="el5b9e0zyzta9" class="animable"></polygon><polygon points="103.19 186.36 100.57 215.36 119.56 215.61 122.12 186.19 103.19 186.36" style="fill: rgb(250, 250, 250); transform-origin: 111.345px 200.9px;" id="el5em05jlee0y" class="animable"></polygon><polygon points="107.22 190.38 105.73 210.33 115.86 210.33 117.64 190.38 107.22 190.38" style="fill: rgb(224, 224, 224); transform-origin: 111.685px 200.355px;" id="elqd4f3qvolrq" class="animable"></polygon><g id="elntebx9j7k38"><rect x="388.61" y="54.98" width="9.35" height="46.53" style="fill: rgb(224, 224, 224); transform-origin: 393.285px 78.245px; transform: rotate(-0.31deg);" class="animable"></rect></g><g id="elyudbbsllcl"><rect x="307.54" y="55.14" width="24.22" height="25.69" style="fill: rgb(235, 235, 235); transform-origin: 319.65px 67.985px; transform: rotate(-0.31deg);" class="animable"></rect></g><g id="ellvvjtcr1c"><rect x="331.64" y="55.02" width="24.22" height="25.69" style="fill: rgb(245, 245, 245); transform-origin: 343.75px 67.865px; transform: rotate(-0.31deg);" class="animable"></rect></g><path d="M307.51,62.3c16.09.14,32.23,0,48.32-.22a.26.26,0,0,0,0-.51q-24.13-.14-48.31.29a.22.22,0,0,0,0,.44Z" style="fill: rgb(224, 224, 224); transform-origin: 331.67px 61.9459px;" id="ell6qeaz11w3r" class="animable"></path><g id="elr1ewml2u3p"><rect x="292.43" y="80.46" width="44" height="20.93" style="fill: rgb(235, 235, 235); transform-origin: 314.43px 90.925px; transform: rotate(-0.31deg);" class="animable"></rect></g><g id="elo84f030pp7e"><rect x="336.22" y="80.22" width="44" height="20.93" style="fill: rgb(245, 245, 245); transform-origin: 358.22px 90.685px; transform: rotate(-0.31deg);" class="animable"></rect></g><path d="M292.4,86.4c29.23.33,58.56,0,87.79-.43a.26.26,0,0,0,0-.52c-29.23-.15-58.57-.14-87.79.51a.22.22,0,0,0,0,.44Z" style="fill: rgb(224, 224, 224); transform-origin: 336.315px 85.9526px;" id="elo5905w1t94f" class="animable"></path><rect x="275.95" y="101.51" width="170.46" height="7.5" style="fill: rgb(224, 224, 224); transform-origin: 361.18px 105.26px;" id="el6llujrcoao9" class="animable"></rect><rect x="303.86" y="105.12" width="6.92" height="25.59" style="fill: rgb(224, 224, 224); transform-origin: 307.32px 117.915px;" id="elsf916d6fr19" class="animable"></rect><rect x="407.16" y="105.12" width="6.92" height="25.59" style="fill: rgb(224, 224, 224); transform-origin: 410.62px 117.915px;" id="el210l42t27e8" class="animable"></rect><g id="elelh6fkz5y4s"><rect x="397.78" y="37.63" width="9.35" height="64" style="fill: rgb(235, 235, 235); transform-origin: 402.455px 69.63px; transform: rotate(-0.31deg);" class="animable"></rect></g><g id="elyqlrrnwakko"><rect x="407.18" y="49.56" width="14.53" height="51.86" style="fill: rgb(245, 245, 245); transform-origin: 414.445px 75.49px; transform: rotate(-0.31deg);" class="animable"></rect></g><path d="M421.48,59.51a52.77,52.77,0,0,1-7.27.25,52.56,52.56,0,0,1-7.26-.25,105.69,105.69,0,0,1,14.53,0Z" style="fill: rgb(224, 224, 224); transform-origin: 414.215px 59.5259px;" id="elrj8o6u0a7s" class="animable"></path><path d="M421.48,57.33a52.77,52.77,0,0,1-7.27.25,52.56,52.56,0,0,1-7.26-.25,105.69,105.69,0,0,1,14.53,0Z" style="fill: rgb(224, 224, 224); transform-origin: 414.215px 57.3459px;" id="elld5608aiovl" class="animable"></path><path d="M421.48,93.58a105.69,105.69,0,0,1-14.53,0,105.69,105.69,0,0,1,14.53,0Z" style="fill: rgb(224, 224, 224); transform-origin: 414.215px 93.58px;" id="eljb3zu41wlpk" class="animable"></path><path d="M421.48,91.4a105.69,105.69,0,0,1-14.53,0,105.69,105.69,0,0,1,14.53,0Z" style="fill: rgb(224, 224, 224); transform-origin: 414.215px 91.4px;" id="elknseiz3cq58" class="animable"></path><path d="M414.45,86.65c-.14,0-.26-5.23-.26-11.69s.12-11.68.26-11.68.25,5.23.25,11.68S414.58,86.65,414.45,86.65Z" style="fill: rgb(224, 224, 224); transform-origin: 414.445px 74.965px;" id="eluswd9csayim" class="animable"></path><rect x="421.63" y="62.26" width="15.82" height="39.15" style="fill: rgb(235, 235, 235); transform-origin: 429.54px 81.835px;" id="eljfr3lnk2cjo" class="animable"></rect><path d="M404.84,48.53a2.69,2.69,0,1,1-2.69-2.68A2.69,2.69,0,0,1,404.84,48.53Z" style="fill: rgb(224, 224, 224); transform-origin: 402.15px 48.54px;" id="el9p741rj8eni" class="animable"></path><rect x="401.32" y="55.93" width="1.66" height="38.07" style="fill: rgb(224, 224, 224); transform-origin: 402.15px 74.965px;" id="elkr63149jbh" class="animable"></rect></g><g id="freepik--Floor--inject-4" class="animable" style="transform-origin: 250px 478.55px;"><path d="M459.85,478.55c0,.14-94,.26-209.84.26s-209.86-.12-209.86-.26,93.94-.26,209.86-.26S459.85,478.4,459.85,478.55Z" style="fill: rgb(38, 50, 56); transform-origin: 250px 478.55px;" id="el3a5onxsmxs7" class="animable"></path></g><g id="freepik--Chair--inject-4" class="animable" style="transform-origin: 207.735px 347.786px;"><polygon points="248.29 351.87 289.52 478.55 282.01 478.55 233.71 351.87 248.29 351.87" style="fill: rgb(224, 224, 224); transform-origin: 261.615px 415.21px;" id="el7p5104ie7fp" class="animable"></polygon><path d="M248.29,351.87l-1,0-2.8,0-10.82.06.1-.15C242.05,373.35,259.9,420,280.58,474c.56,1.48,1.12,3,1.68,4.41l-.24-.16h7.5l-.25.34c-11.51-35.51-21.78-67.16-29.17-89.94-3.68-11.41-6.64-20.59-8.68-26.94-1-3.17-1.8-5.63-2.34-7.31l-.6-1.91c-.13-.43-.19-.66-.19-.66s.08.2.22.62l.63,1.87c.55,1.67,1.36,4.1,2.4,7.24,2.08,6.33,5.08,15.48,8.82,26.84,7.45,22.81,17.8,54.49,29.4,90l.11.34h-8l-.07-.17c-.55-1.46-1.12-2.93-1.68-4.41-20.55-54.08-38.3-100.78-46.49-122.32l0-.15h.16l10.88.06,2.77,0C248,351.85,248.29,351.87,248.29,351.87Z" style="fill: rgb(38, 50, 56); transform-origin: 261.75px 415.215px;" id="elpjjn04yyjek" class="animable"></path><polygon points="167.15 351.87 125.92 478.55 133.42 478.55 181.73 351.87 167.15 351.87" style="fill: rgb(224, 224, 224); transform-origin: 153.825px 415.21px;" id="el62kmmj0hjvr" class="animable"></polygon><path d="M167.15,351.87s.31,0,.93,0l2.77,0,10.88-.06h.16l-.06.15c-8.18,21.54-25.93,68.24-46.48,122.32l-1.69,4.41-.06.17h-8l.11-.34,29.41-90,8.82-26.84c1-3.14,1.85-5.57,2.4-7.24l.63-1.87c.14-.42.22-.62.22-.62s-.06.23-.19.66l-.6,1.91c-.54,1.68-1.33,4.14-2.34,7.31-2.05,6.35-5,15.53-8.68,26.94-7.4,22.78-17.66,54.43-29.17,89.94l-.25-.34h7.5l-.24.16,1.68-4.41c20.68-54,38.53-100.69,46.76-122.21l.11.15-10.83-.06-2.79,0Z" style="fill: rgb(38, 50, 56); transform-origin: 153.745px 415.335px;" id="el8pg6i7ay97m" class="animable"></path><path d="M234.77,354.65a5.64,5.64,0,0,1-.72.52l-2.12,1.4-7.81,5.12c-6.59,4.34-15.68,10.36-25.67,17.06L172.87,396l-7.76,5.21L163,402.55a4.7,4.7,0,0,1-.76.46,6.19,6.19,0,0,1,.7-.54L165,401l7.67-5.34c6.49-4.48,15.5-10.63,25.5-17.33s19.11-12.68,25.76-16.94c3.32-2.12,6-3.83,7.9-5l2.17-1.32A5.78,5.78,0,0,1,234.77,354.65Z" style="fill: rgb(38, 50, 56); transform-origin: 198.505px 378.83px;" id="el3pp3u7lvcck" class="animable"></path><path d="M155.67,216.82s-12.92,1.33-14.8,9.11-8,104,0,117.63,111,11.73,118.15,9.86,10.52-6.51,9.79-12.18-70.87-12.7-70.87-12.7l4.28-100.42S177,215.42,155.67,216.82Z" style="fill: rgb(38, 50, 56); transform-origin: 202.883px 285.72px;" id="elv846ci1jw5a" class="animable"></path><path d="M268.87,343.67l-.31,0-.92,0-3.53.09c-3.07.08-7.51.12-13,.11-11,0-26.15-.38-42.86-1.58-8.35-.61-16.3-1.38-23.51-2.2s-13.69-1.72-19.11-2.57c-2.72-.4-5.16-.83-7.31-1.19s-4-.69-5.51-1l-3.47-.67-.9-.18-.3-.08a1.2,1.2,0,0,1,.31,0l.91.13,3.49.57c1.51.26,3.36.57,5.52.89s4.6.74,7.31,1.11c5.43.81,11.91,1.64,19.11,2.46s15.15,1.55,23.5,2.16c16.7,1.2,31.85,1.61,42.82,1.73,5.48.06,9.92.07,13,.06h4.46Z" style="fill: rgb(69, 90, 100); transform-origin: 208.505px 339.131px;" id="el7yla46dycfr" class="animable"></path><path d="M253.75,404.43c-.08.12-16.4-11.35-36.44-25.6s-36.23-25.92-36.15-26,16.4,11.35,36.45,25.61S253.83,404.31,253.75,404.43Z" style="fill: rgb(38, 50, 56); transform-origin: 217.455px 378.63px;" id="ellm2h0vnd4nb" class="animable"></path></g><g id="freepik--speech-bubble--inject-4" class="animable animator-active" style="transform-origin: 124.546px 95.6013px;"><path d="M164.8,130.43l-8.25-14.53a38.92,38.92,0,1,0-9.32,10.37l0,0Z" style="fill: rgb(255, 255, 255); transform-origin: 124.646px 95.4897px;" id="eljdyugz5rikj" class="animable"></path><path d="M164.8,130.43l-17.62-4-.24,0,.15-.2h0l.22.22a38.85,38.85,0,0,1-18.67,7.88,34.59,34.59,0,0,1-6.16.32c-1.06-.06-2.14-.09-3.23-.18l-3.29-.49a39.3,39.3,0,0,1-24.34-15.62,38.8,38.8,0,0,1-6.59-15,39.85,39.85,0,0,1,.46-17.33,38.41,38.41,0,0,1,8.35-16,39.17,39.17,0,0,1,15-10.72,39.8,39.8,0,0,1,17.46-2.68,38.38,38.38,0,0,1,16,4.74A39.45,39.45,0,0,1,160.82,84a42.4,42.4,0,0,1,1.69,12.67,38.87,38.87,0,0,1-5.83,19.3v-.16l8.12,14.61c-.54-.92-3.08-5.31-8.38-14.46l0-.07,0-.08a38.66,38.66,0,0,0,5.65-19.16,41.62,41.62,0,0,0-1.72-12.5,39.08,39.08,0,0,0-18.29-22.39,37.79,37.79,0,0,0-15.78-4.64,39.18,39.18,0,0,0-17.19,2.65A38.58,38.58,0,0,0,94.33,70.33a37.77,37.77,0,0,0-8.22,15.76,39.09,39.09,0,0,0-.47,17.06A38.26,38.26,0,0,0,92.1,118a38.78,38.78,0,0,0,24,15.47l3.25.5c1.08.09,2.14.12,3.19.19a34.79,34.79,0,0,0,6.09-.29,38.75,38.75,0,0,0,18.54-7.69l1-.75-.75,1h0l-.09-.24Z" style="fill: rgb(38, 50, 56); transform-origin: 124.546px 95.6013px;" id="el90mrzk1l8z" class="animable"></path><path d="M116.77,90.33h2.46l5.36-7.48V77.94s3.8-.23,3.36,6.19,0,4.79,0,4.79,8.07,0,8.74.74c.49.5.71,8.52.79,12.86a4.69,4.69,0,0,1-3.33,4.74,3.26,3.26,0,0,1-.87.12c-2,0-12.29-1.64-12.29-1.64h-4.25Z" style="fill: rgb(224, 113, 51); transform-origin: 127.113px 92.6595px;" id="elwr6ko552psq" class="animable"></path><polygon points="109.73 88.98 111.25 105.79 115.46 105.79 115.46 89.32 109.73 88.98" style="fill: rgb(224, 113, 51); transform-origin: 112.595px 97.385px;" id="elc7pkqhllyqh" class="animable"></polygon></g><g id="freepik--Character--inject-4" class="animable" style="transform-origin: 271.12px 268.17px;"><path d="M320.37,302s23.14,0,24.09,21.56S277.1,458.86,277.1,458.86l-21.63-10.27,46.38-110.37-100.64-9.9L204.06,303Z" style="fill: rgb(255, 190, 157); transform-origin: 272.84px 380.43px;" id="eluwqg71i8npk" class="animable"></path><path d="M281.67,452.3l-.67,1.53s21.2,21.8,19.3,26.82l-51.11-23,8.35-16.7C263.55,447.9,271.33,451.88,281.67,452.3Z" style="fill: rgb(69, 90, 100); transform-origin: 274.805px 460.8px;" id="el01z0e6djr7mw" class="animable"></path><g id="eljo3ligcu7lh"><g style="opacity: 0.6; transform-origin: 259.913px 450.849px;" class="animable"><path d="M260.27,448.73a2.3,2.3,0,0,0-2.52,1.73,2.2,2.2,0,0,0,1.7,2.51,2.42,2.42,0,0,0,2.65-1.85,2.27,2.27,0,0,0-2.05-2.41" style="fill: rgb(255, 255, 255); transform-origin: 259.913px 450.849px;" id="elf53tklk19yu" class="animable"></path></g></g><g id="elbbc2y97b7aq"><g style="opacity: 0.6; transform-origin: 274.884px 467.165px;" class="animable"><path d="M249.19,457.66l2-4,48.25,23.51s1.83,2,.85,3.5Z" style="fill: rgb(255, 255, 255); transform-origin: 274.884px 467.165px;" id="eluglhwkjxxm" class="animable"></path></g></g><path d="M281.11,454.05c-.12.24-1.42-.2-3,.05s-2.72,1-2.91.8.84-1.48,2.77-1.75S281.27,453.84,281.11,454.05Z" style="fill: rgb(38, 50, 56); transform-origin: 278.15px 454.018px;" id="elr1cx8r8z5a" class="animable"></path><path d="M285.48,458.68c-.05.26-1.33.2-2.65.88s-2.07,1.68-2.31,1.56.23-1.61,1.89-2.42S285.58,458.44,285.48,458.68Z" style="fill: rgb(38, 50, 56); transform-origin: 282.973px 459.702px;" id="el3tsmf6x5vxd" class="animable"></path><path d="M285.64,466.46c-.25,0,0-1.45,1.21-2.53s2.67-1.09,2.68-.84-1,.66-2,1.56S285.9,466.55,285.64,466.46Z" style="fill: rgb(38, 50, 56); transform-origin: 287.541px 464.711px;" id="el3axuf15kosn" class="animable"></path><polygon points="276.59 220.71 280.7 233.28 258.29 235.03 255.68 228.3 276.59 220.71" style="fill: rgb(255, 190, 157); transform-origin: 268.19px 227.87px;" id="elzxr7wrzp9qr" class="animable"></polygon><path d="M340.22,237.2c.43.86,1.55,1,2.41,1.45a4.93,4.93,0,0,1,2.47,4.6,10.92,10.92,0,0,1-1.77,5.16A4.47,4.47,0,0,1,342,250a1.7,1.7,0,0,1-1.94,0c-.66-.55-.58-1.57-.44-2.42.53-3.19-.16-7.22.59-10.37" style="fill: rgb(255, 190, 157); transform-origin: 342.317px 243.752px;" id="elyuos1d21umm" class="animable"></path><path d="M191.18,79.59a5.66,5.66,0,0,1,4.36-6.28l24.74-15.74c9.43-2.12,21.31,13.63,23,23.13a160.32,160.32,0,0,1,2,31.6c-.68,16.26-11.34,18-11.34,18l8,54.07-38.55-23.77Z" style="fill: rgb(255, 190, 157); transform-origin: 218.255px 120.873px;" id="eli8qxhtjmt5" class="animable"></path><path d="M238.14,94.19a2.06,2.06,0,0,1-1.73,2.29,2,2,0,0,1-2.33-1.6,2.06,2.06,0,0,1,1.73-2.29A2,2,0,0,1,238.14,94.19Z" style="fill: rgb(38, 50, 56); transform-origin: 236.11px 94.535px;" id="eli82fsbegxs" class="animable"></path><path d="M241.32,88.35c-.2.22-1.84.19-3.91,1s-3.44,1.89-3.7,1.83,0-.35.63-.85a9.77,9.77,0,0,1,2.91-1.64,8.84,8.84,0,0,1,3.16-.59C241.13,88.08,241.42,88.25,241.32,88.35Z" style="fill: rgb(38, 50, 56); transform-origin: 237.475px 89.6404px;" id="elspshvr0ckwa" class="animable"></path><path d="M217.66,95.18a2.07,2.07,0,0,1-1.74,2.29,2,2,0,0,1-2.32-1.6,2.05,2.05,0,0,1,1.73-2.29A2,2,0,0,1,217.66,95.18Z" style="fill: rgb(38, 50, 56); transform-origin: 215.629px 95.5241px;" id="elbqmfzga98ub" class="animable"></path><path d="M219.81,92.54c-.3.12-1.84-.8-4.23-1.15s-4.26,0-4.49-.16.23-.33,1-.52a10.35,10.35,0,0,1,3.64-.07,9.38,9.38,0,0,1,3.33,1.12C219.77,92.17,220,92.49,219.81,92.54Z" style="fill: rgb(38, 50, 56); transform-origin: 215.452px 91.5312px;" id="eld786ekxsdxi" class="animable"></path><path d="M229.57,106.14a14.3,14.3,0,0,1,3.5-1.07c.55-.12,1.07-.29,1.12-.69a2.83,2.83,0,0,0-.57-1.62q-1-2-2.16-4.09c-3-5.83-5.28-10.65-5-10.77s2.88,4.51,5.9,10.34l2.09,4.12a3.28,3.28,0,0,1,.55,2.18,1.43,1.43,0,0,1-.83.93,3.94,3.94,0,0,1-.94.24A14.78,14.78,0,0,1,229.57,106.14Z" style="fill: rgb(38, 50, 56); transform-origin: 230.727px 97.0191px;" id="elj5gu4b1oanr" class="animable"></path><path d="M233.93,130.34a39.85,39.85,0,0,1-22-3s6.57,11.24,22.37,7.88Z" style="fill: rgb(235, 153, 110); transform-origin: 223.115px 131.593px;" id="eli7kax7mxbg" class="animable"></path><path d="M229.82,111.53a5.91,5.91,0,0,0-4.55-2.31,2.52,2.52,0,0,0-2.32,1.67,4,4,0,0,0,.77,3.62,3.4,3.4,0,0,0,3.52,1.23,5.6,5.6,0,0,0,2.55-2.11,2,2,0,0,0,.47-.85,1.39,1.39,0,0,0-.3-1.14" style="fill: rgb(235, 153, 110); transform-origin: 226.543px 112.53px;" id="elkreqtwsgwjj" class="animable"></path><path d="M223.26,108.42c.36-.07.64,2.32,2.88,3.78s4.76.9,4.82,1.23c0,.15-.51.53-1.59.69a6,6,0,0,1-4-.89,5.22,5.22,0,0,1-2.26-3.2C222.9,109,223.1,108.42,223.26,108.42Z" style="fill: rgb(38, 50, 56); transform-origin: 226.99px 111.294px;" id="el6sdouemwsra" class="animable"></path><path d="M220.51,82.71c-.21.6-2.43.35-5,.71s-4.69,1.09-5.05.56c-.16-.26.2-.83,1-1.43a8.82,8.82,0,0,1,7.67-1C220.11,82,220.6,82.42,220.51,82.71Z" style="fill: rgb(38, 50, 56); transform-origin: 215.472px 82.6285px;" id="eljhewb49rrdm" class="animable"></path><path d="M241.44,83.42c-.43.55-2.37.25-4.64.48s-4.15.81-4.65.33c-.23-.23,0-.77.81-1.33a8.1,8.1,0,0,1,7.48-.66C241.3,82.67,241.62,83.15,241.44,83.42Z" style="fill: rgb(38, 50, 56); transform-origin: 236.777px 83.0172px;" id="elg028sznwnxl" class="animable"></path><path d="M180.33,121.15c.4-7.25,1.56-30.46,6.24-43.12s11.27-18.33,18.05-21a16.18,16.18,0,0,1,15.8,1.74c3.48,2.46,5.5,10.56,5.5,10.56s-16.45,5.68-21,16c-5.27,11.8-6.21,17.54-6.21,17.54l-1.42,6.29s3.09,27.34,4.48,33l-22.3,21.56C180.2,156.6,179.93,128.39,180.33,121.15Z" style="fill: rgb(38, 50, 56); transform-origin: 202.695px 109.724px;" id="elkyjnml8l8c" class="animable"></path><path d="M226.41,69.37s9.53-2.15,14.34,8.34c2.18,4.75,4.34,19.13,4.34,19.13s.81-11.75-.45-18.14-5.41-14.19-10.87-18.14-9.6-5.44-18.14-3.94a13.93,13.93,0,0,1,6.73,3.93C223.65,62.06,224.29,63.4,226.41,69.37Z" style="fill: rgb(38, 50, 56); transform-origin: 230.488px 76.4435px;" id="elcs7y9ldsv69" class="animable"></path><path d="M198.89,103.65c-.58-3.52-4.7-5.44-7.56-3.31-1.57,1.16-2.63,3.26-2.05,7,1.56,10,11.23,6.34,11.2,6.06S199.57,107.76,198.89,103.65Z" style="fill: rgb(255, 190, 157); transform-origin: 194.8px 106.865px;" id="el0hn0qs5f2zkd" class="animable"></path><path d="M196.85,110.09s-.15.15-.42.33a1.82,1.82,0,0,1-1.3.23c-1.11-.22-2.25-1.76-2.58-3.54a5.74,5.74,0,0,1,.1-2.56,2,2,0,0,1,1.09-1.54.91.91,0,0,1,1.1.32c.18.26.14.46.2.47s.19-.2,0-.6a1.1,1.1,0,0,0-.49-.56,1.33,1.33,0,0,0-1-.1,2.49,2.49,0,0,0-1.58,1.83,5.91,5.91,0,0,0-.16,2.86c.37,2,1.69,3.72,3.2,3.91a1.88,1.88,0,0,0,1.54-.51C196.87,110.33,196.89,110.1,196.85,110.09Z" style="fill: rgb(235, 153, 110); transform-origin: 194.285px 106.82px;" id="elsp1m5boj1ai" class="animable"></path><path d="M208.55,55.93c0,.08,1.38-.12,3.58-.08a12.37,12.37,0,0,1,3.78.67,12.18,12.18,0,0,1,4,2.44,18.68,18.68,0,0,1,4.9,7c.82,2,1,3.42,1.12,3.4a4.74,4.74,0,0,0-.14-.95,17.92,17.92,0,0,0-5.64-9.68A12.13,12.13,0,0,0,216,56.21a11.82,11.82,0,0,0-3.88-.61,20.45,20.45,0,0,0-2.64.17A5.69,5.69,0,0,0,208.55,55.93Z" style="fill: rgb(69, 90, 100); transform-origin: 217.24px 62.4797px;" id="elusmaim2izzg" class="animable"></path><path d="M190.46,111.94a1.29,1.29,0,0,0,0-.17l-.14-.45c-.07-.21-.14-.46-.23-.74l-.27-1a23.58,23.58,0,0,1-.68-6.69,24.08,24.08,0,0,1,2.41-9.62A27.16,27.16,0,0,1,199.35,84a51.66,51.66,0,0,1,5.25-3.56c1.76-1.06,3.53-1.94,5.17-2.92a65.06,65.06,0,0,0,8.16-5.89c2.19-1.85,3.88-3.44,5-4.56.57-.56,1-1,1.29-1.31l.33-.35c.07-.08.11-.12.1-.13l-.12.1-.36.33L222.85,67c-1.17,1.09-2.88,2.65-5.09,4.46a67.82,67.82,0,0,1-8.16,5.81c-1.62,1-3.41,1.83-5.18,2.9a49.23,49.23,0,0,0-5.29,3.58,27.27,27.27,0,0,0-7.92,9.39,23.92,23.92,0,0,0-2.36,9.75,23.11,23.11,0,0,0,.79,6.73l.3,1c.11.28.2.52.27.73l.18.45C190.43,111.89,190.45,111.94,190.46,111.94Z" style="fill: rgb(69, 90, 100); transform-origin: 206.745px 88.61px;" id="el1q3z7jkwq0i" class="animable"></path><path d="M187.71,108.42s0-.06,0-.16l-.06-.48c0-.42-.16-1-.24-1.83a38.58,38.58,0,0,1-.11-6.78,39.24,39.24,0,0,1,2-9.82,37.83,37.83,0,0,1,5.85-10.75,44.43,44.43,0,0,1,9-8.4c3-2.24,6-4,8.39-5.58s4.38-2.79,5.71-3.71c.67-.44,1.17-.81,1.51-1.06l.39-.28.13-.11s-.06,0-.15.08l-.41.25-1.55,1c-1.34.87-3.32,2.1-5.77,3.6s-5.37,3.3-8.45,5.54a43.8,43.8,0,0,0-9,8.43A37.67,37.67,0,0,0,189,89.24a38.85,38.85,0,0,0-2,9.92,35.85,35.85,0,0,0,.23,6.8c.1.8.24,1.41.31,1.83,0,.19.07.35.1.47S187.7,108.42,187.71,108.42Z" style="fill: rgb(69, 90, 100); transform-origin: 203.606px 83.94px;" id="el6mllka3sk0i" class="animable"></path><path d="M241.1,146.93s12.89,5.24,15.36,11.95S277.67,221,277.67,221l-21.75,8.34L246,183.74Z" style="fill: rgb(69, 90, 100); transform-origin: 259.385px 188.135px;" id="elfnygt8al1nj" class="animable"></path><path d="M174.46,304.28s133-6.11,141.35-3.91,13.34,6.41,15,16.42,27.3,142.63,27.3,142.63l-23.32,6.86s-32.72-74.7-34.11-87.2-6-38.12-6-38.12-50.56.83-87.79,0-32.23-35.29-32.23-35.29Z" style="fill: rgb(255, 190, 157); transform-origin: 266.273px 383.086px;" id="elvmclomky61l" class="animable"></path><path d="M334.5,466.88l-.17-.4c-1.34-3.06-32.76-74.91-34.14-87.35-1.28-11.47-5.31-34.3-5.91-37.67-5,.08-52.37.78-87.38,0-11.57-.26-20.28-3.77-25.91-10.42-8.52-10.07-7-24.17-6.81-25.36l-.31-1.87.56,0c5.44-.25,133.19-6.09,141.51-3.89,9.34,2.47,13.79,7.34,15.37,16.81,1.64,9.88,27,141.3,27.3,142.63l.08.44ZM295.11,340.45l.08.42c.05.25,4.62,25.78,6,38.15,1.31,11.81,31.29,80.71,33.89,86.65l22.47-6.6c-1.64-8.49-25.62-132.6-27.22-142.2-1.5-9-5.74-13.66-14.64-16-7.88-2.09-131.21,3.47-140.64,3.9l.15.91v.07c0,.15-2,14.54,6.58,24.66,5.44,6.42,13.9,9.8,25.16,10.06,36.79.82,87.26,0,87.77,0Z" style="fill: rgb(235, 153, 110); transform-origin: 266.28px 383.153px;" id="eliwdpjfe3dlj" class="animable"></path><path d="M183.44,232.55l3.35,20.72s-14.55,27.57-16.19,51.27c-.78,11.26,5.68,34.32,5.68,34.32s51.24,5.63,78.88,4.91l29.49-1.29,5.2-46.07-33.1-4.78.5-62.78s6-16.53,6.46-21.42c1.06-10.32.62-20.76-9.69-34.14L241.1,146.93l-4.31-2,2.05,31.93L201.7,141.57l-18.81,6.75-5.33,25.15Z" style="fill: rgb(69, 90, 100); transform-origin: 230.192px 242.702px;" id="el0yrowcdk6fsb" class="animable"></path><g id="el0axrhnbhgibo"><g style="opacity: 0.3; transform-origin: 235.598px 293.298px;" class="animable"><path d="M247.82,299.26c-2.41.42-19.8.67-22.21,1.09a3.16,3.16,0,0,1-2.48-.27,2.07,2.07,0,0,1-.5-2.27,5.21,5.21,0,0,1,1.46-2c4.21-4,9.68-6.31,15-8.57,1.7-.71,3.54-1.44,5.32-1a5.66,5.66,0,0,1,3.66,3.8,16.5,16.5,0,0,1,.62,5.43" id="el12gg7sc6hxn" class="animable" style="transform-origin: 235.598px 293.298px;"></path></g></g><g id="elnpqmvcuemd"><g style="opacity: 0.3; transform-origin: 202.003px 219.737px;" class="animable"><path d="M184.81,247c6.21-1.45,10.11-7.57,12.63-13.43s4.6-12.33,9.54-16.37c3.62-3,8.47-4.32,11.6-7.8a12.25,12.25,0,0,0,2.13-12.64c-.9-2.14-2.71-4.16-5-4.28-2.7-.14-4.8,2.2-6.45,4.35q-11.32,14.83-21.35,30.6c-3.59,5.65-7.17,12.51-4.67,18.72" id="elh5z6vqvak2b" class="animable" style="transform-origin: 202.003px 219.737px;"></path></g></g><path d="M184.85,151.62s-10.51,3.34-14.31,9.93-10.1,38.59-11.62,47.21-8.87,44.09,0,49.67,20.53-3,23.57-8.11,15.45-31.68,15.45-31.68l-11.15-9.37s2-25.34,1.27-30.67S184.85,151.62,184.85,151.62Z" style="fill: rgb(255, 190, 157); transform-origin: 176.279px 205.934px;" id="el63jf3ok3vj5" class="animable"></path><path d="M151.89,217.41,176.28,219l11.14-13.08,3.08-20.6-.82-39.41s-21.77,5.31-26.48,21.86C159.71,180,151.89,217.41,151.89,217.41Z" style="fill: rgb(69, 90, 100); transform-origin: 171.195px 182.455px;" id="elcdj21t1bg6b" class="animable"></path><path d="M195.05,170.8c-1.4-.19-3.19,1.46-2,5.44,1,3.32,2.88,6.55,2.74,8.4s-.86,5.7-.86,7.7a55.61,55.61,0,0,1-.57,5.84l-16.6,20,14.37,12.68L203.5,213s3.43.57,5.42-1.71l3-3.43s7.7-2.85,6.13-7c0,0,2.28-2.17.21-5.65,0,0,1.08-3.62-.49-5.75,0,0-.14-4.85-1.43-5.71s-14.63-1-14.63-1a69.49,69.49,0,0,0-2.51-6.53C197.74,173.81,197,171.06,195.05,170.8Z" style="fill: rgb(255, 190, 157); transform-origin: 198.444px 200.823px;" id="elwur6l5r9m7a" class="animable"></path><path d="M200.73,190.47c0,.05-.35-.14-.66-.61a3.31,3.31,0,0,1,.44-4.11c.4-.39.74-.51.77-.46a5.7,5.7,0,0,0-1.19,2.49A6,6,0,0,0,200.73,190.47Z" style="fill: rgb(235, 153, 110); transform-origin: 200.415px 187.879px;" id="el59zcf14qva4" class="animable"></path><path d="M217.21,189.1a28.85,28.85,0,0,1-6.17,1.09,28.31,28.31,0,0,1-6.26.21,56.47,56.47,0,0,1,6.21-.73A54.5,54.5,0,0,1,217.21,189.1Z" style="fill: rgb(235, 153, 110); transform-origin: 210.995px 189.792px;" id="eld75juz5hhp" class="animable"></path><path d="M218.39,194.82a17.71,17.71,0,0,1-5.19,1.24,17.93,17.93,0,0,1-5.33.18c0-.15,2.36-.3,5.26-.7S218.36,194.68,218.39,194.82Z" style="fill: rgb(235, 153, 110); transform-origin: 213.13px 195.577px;" id="el4ec3iw7tcq9" class="animable"></path><path d="M218.1,200.69a20.32,20.32,0,0,1-8,.79,22.8,22.8,0,0,1,4-.51A23.07,23.07,0,0,1,218.1,200.69Z" style="fill: rgb(235, 153, 110); transform-origin: 214.1px 201.135px;" id="elvwryiw4sqb" class="animable"></path><path d="M205.5,202.49c0,.06-.28,0-.62-.19A2.13,2.13,0,0,1,204,201a2.17,2.17,0,0,1,.2-1.55c.2-.35.42-.49.47-.45s-.41.87-.17,1.88S205.57,202.36,205.5,202.49Z" style="fill: rgb(235, 153, 110); transform-origin: 204.721px 200.753px;" id="el9v0whvsp17l" class="animable"></path><path d="M202.22,197.73c0,.05-.33-.12-.64-.55a3.67,3.67,0,0,1-.66-1.93,3.76,3.76,0,0,1,.44-2c.27-.46.53-.66.58-.62a8.11,8.11,0,0,0-.5,2.58A8.52,8.52,0,0,0,202.22,197.73Z" style="fill: rgb(235, 153, 110); transform-origin: 201.567px 195.182px;" id="elzvemcuecb8" class="animable"></path><path d="M214,207a6,6,0,0,1-2.34.68,5.85,5.85,0,0,1-2.44.17,5.84,5.84,0,0,1,2.34-.68A5.66,5.66,0,0,1,214,207Z" style="fill: rgb(235, 153, 110); transform-origin: 211.61px 207.423px;" id="elszgaxreb1yn" class="animable"></path><path d="M207.57,182.84c0,.15-2,.15-4.53.4s-4.48.64-4.52.5a12.75,12.75,0,0,1,4.47-1A13,13,0,0,1,207.57,182.84Z" style="fill: rgb(235, 153, 110); transform-origin: 203.045px 183.177px;" id="elkq45y187ehq" class="animable"></path><path d="M251.48,230.91h82.66a5.5,5.5,0,0,1,5.5,5.5V295a0,0,0,0,1,0,0H246a0,0,0,0,1,0,0V236.4A5.5,5.5,0,0,1,251.48,230.91Z" style="fill: rgb(224, 224, 224); transform-origin: 292.82px 262.955px;" id="elringzkr6zb" class="animable"></path><path d="M339.64,299.26h-110a4.22,4.22,0,0,1,4.22-4.22H339.64Z" style="fill: rgb(224, 224, 224); transform-origin: 284.64px 297.15px;" id="eld5ilrh93l7q" class="animable"></path><rect x="248.84" y="235.03" width="87.34" height="60.01" style="fill: rgb(255, 255, 255); transform-origin: 292.51px 265.035px;" id="elvk3bygtw6r" class="animable"></rect><path d="M336.17,295s0-.38,0-1.1,0-1.8,0-3.18c0-2.79,0-6.87-.06-12.09,0-10.44-.06-25.41-.11-43.64l.21.21-87.33,0h0l.26-.26c0,21.43,0,41.78,0,60l-.23-.24,62.91.12,18,.07,4.79,0,1.23,0h.43l-.4,0h-1.21l-4.74,0-17.91.06-63.07.12h-.24V295c0-18.23,0-38.58,0-60v-.26h.26l87.33,0h.21V235c0,18.28-.08,33.3-.11,43.77,0,5.2,0,9.26,0,12,0,1.37,0,2.42,0,3.14S336.17,295,336.17,295Z" style="fill: rgb(38, 50, 56); transform-origin: 292.6px 264.905px;" id="el0roj08t7nnl" class="animable"></path><path d="M339.18,295c0,.15-23.61.26-52.73.26s-52.74-.11-52.74-.26,23.61-.26,52.74-.26S339.18,294.9,339.18,295Z" style="fill: rgb(38, 50, 56); transform-origin: 286.445px 295px;" id="el5u2q0crldi" class="animable"></path><circle cx="292.5" cy="265.04" r="22.95" style="fill: rgb(224, 113, 51); transform-origin: 292.5px 265.04px;" id="elba3lqnrhh5" class="animable"></circle><polygon points="278.24 265.6 283.1 261 289.81 267.18 303.02 254.75 307.82 259.29 289.74 276.45 278.24 265.6" style="fill: rgb(255, 255, 255); transform-origin: 293.03px 265.6px;" id="elmdycgrxxnyi" class="animable"></polygon><path d="M194.38,198.18c.11.09-6.78,8.41-15.39,18.57S163.31,235.07,163.2,235s6.78-8.4,15.39-18.57S194.27,198.09,194.38,198.18Z" style="fill: rgb(235, 153, 110); transform-origin: 178.79px 216.59px;" id="el6bvpocvkp88" class="animable"></path><path d="M193.19,185.29a73.29,73.29,0,0,1-1.19,8.64,72.29,72.29,0,0,1-1.7,8.56,73.3,73.3,0,0,1,1.19-8.65A74.88,74.88,0,0,1,193.19,185.29Z" style="fill: rgb(38, 50, 56); transform-origin: 191.745px 193.89px;" id="elu5n2zo73oud" class="animable"></path><path d="M257.25,228.85a3.56,3.56,0,0,1,.16-.6l.54-1.68c.48-1.45,1.19-3.55,2-6.16a92.13,92.13,0,0,0,2.42-9.28,50.54,50.54,0,0,0,1.07-11.64,46.31,46.31,0,0,0-5.84-20.27,59.9,59.9,0,0,0-3.4-5.5c-.42-.63-.78-1.1-1-1.43a2.91,2.91,0,0,1-.33-.53,2.88,2.88,0,0,1,.41.46c.26.32.65.77,1.1,1.39a51.45,51.45,0,0,1,3.56,5.43,48.77,48.77,0,0,1,3.91,8.82A42.41,42.41,0,0,1,264,199.47a49.15,49.15,0,0,1-1.12,11.76,86.34,86.34,0,0,1-2.54,9.29c-.86,2.6-1.62,4.69-2.16,6.12q-.39,1-.63,1.65A2.61,2.61,0,0,1,257.25,228.85Z" style="fill: rgb(38, 50, 56); transform-origin: 258.443px 200.305px;" id="ellps0tncs5pe" class="animable"></path><path d="M236,197.71a8,8,0,0,1,0,1.4,11.69,11.69,0,0,1-.12,1.64,20.83,20.83,0,0,1-.33,2.16,21.25,21.25,0,0,1-.64,2.56,28.35,28.35,0,0,1-1,2.87,32.4,32.4,0,0,1-3.42,6,31.61,31.61,0,0,1-4.73,5.1,26.73,26.73,0,0,1-2.42,1.84,20.6,20.6,0,0,1-2.25,1.39,18.49,18.49,0,0,1-2,1,11.43,11.43,0,0,1-1.52.61,7.49,7.49,0,0,1-1.34.41c-.05-.11,1.87-.7,4.63-2.31a24.34,24.34,0,0,0,2.19-1.42c.78-.52,1.53-1.18,2.35-1.85a31.1,31.1,0,0,0,8-11,28.76,28.76,0,0,0,1-2.8,23.6,23.6,0,0,0,.69-2.52C235.92,199.71,235.9,197.71,236,197.71Z" style="fill: rgb(38, 50, 56); transform-origin: 226.13px 211.2px;" id="elq05y7l512lg" class="animable"></path><path d="M263.49,206.8a.71.71,0,0,1-.14-.19L263,206c-.33-.55-.78-1.3-1.35-2.23s-1.46-2.07-2.39-3.37-2.11-2.72-3.36-4.31c-5.14-6.28-12.73-14.53-21.43-23.34s-16.87-16.49-22.86-22l-4.08-3.65c-1.2-1.06-2.24-2-3.11-2.72l-2-1.69-.51-.45a.72.72,0,0,1-.17-.17,1,1,0,0,1,.2.13c.15.11.33.24.54.41l2.06,1.61,3.17,2.66c1.23,1.06,2.61,2.27,4.13,3.6,6.07,5.4,14.26,13.07,23,21.87s16.27,17.12,21.34,23.47c1.24,1.61,2.36,3.06,3.32,4.36l2.32,3.44c.53,1,1,1.72,1.27,2.29l.32.6Q263.51,206.8,263.49,206.8Z" style="fill: rgb(38, 50, 56); transform-origin: 232.617px 174.435px;" id="ell8hv0zq220a" class="animable"></path><path d="M244.07,253.06a2,2,0,0,1-.57.11l-1.63.23c-1.42.19-3.49.41-6,.64-5.11.46-12.2.83-20,.74s-14.92-.66-20-1.24c-2.55-.29-4.61-.57-6-.8l-1.63-.26a2.42,2.42,0,0,1-.56-.13,2.32,2.32,0,0,1,.58,0l1.64.17c1.42.17,3.49.39,6,.63,5.09.49,12.16,1,20,1.09s14.89-.23,20-.59c2.55-.18,4.62-.34,6-.47l1.64-.13A2.55,2.55,0,0,1,244.07,253.06Z" style="fill: rgb(38, 50, 56); transform-origin: 215.875px 253.563px;" id="elyuqb8t3rjba" class="animable"></path><path d="M287.38,230.84s16.38-6.39,17.93-6.9,15.87-1.63,15.87-1.63l18.46,6.63s.17,3.79-4.14,3.28a78,78,0,0,1-11.21-2.76L321.7,231Z" style="fill: rgb(255, 190, 157); transform-origin: 313.51px 227.289px;" id="el3a03dq0opkq" class="animable"></path><path d="M338.75,233.27c.43.87,1.55,1,2.41,1.46a5,5,0,0,1,2.47,4.6,10.88,10.88,0,0,1-1.77,5.15,4.51,4.51,0,0,1-1.32,1.58,1.7,1.7,0,0,1-1.94,0,2.53,2.53,0,0,1-.44-2.42c.53-3.19-.16-7.23.59-10.38" style="fill: rgb(255, 190, 157); transform-origin: 340.832px 239.812px;" id="elbn2pwwgyj9m" class="animable"></path><path d="M357.31,454.47l.56,1.56s30.4,1.19,32.48,6.13l-52.88,18.58L332,462.89C341.15,463.77,349.52,461.29,357.31,454.47Z" style="fill: rgb(69, 90, 100); transform-origin: 361.175px 467.605px;" id="elv5vi71ggx2r" class="animable"></path><g id="el8giv2kqn8pu"><g style="opacity: 0.6; transform-origin: 340.549px 468.456px;" class="animable"><path d="M339.34,466.63a2.3,2.3,0,0,0-.63,3,2.21,2.21,0,0,0,3,.65,2.41,2.41,0,0,0,.65-3.17,2.29,2.29,0,0,0-3.15-.33" style="fill: rgb(255, 255, 255); transform-origin: 340.549px 468.456px;" id="el3co7zei4se7" class="animable"></path></g></g><g id="el5azdz5gw7wr"><g style="opacity: 0.6; transform-origin: 363.24px 470.475px;" class="animable"><path d="M337.47,480.74l-1.31-4.29,51.16-16.24s2.71.2,3,2Z" style="fill: rgb(255, 255, 255); transform-origin: 363.24px 470.475px;" id="elakn4hnrlvl" class="animable"></path></g></g><path d="M358.11,456.12c.08.26-1.17.83-2.15,2.11s-1.27,2.6-1.54,2.58-.42-1.65.79-3.17S358.08,455.86,358.11,456.12Z" style="fill: rgb(38, 50, 56); transform-origin: 356.173px 458.421px;" id="elktjs1799j9h" class="animable"></path><path d="M364.46,456.46c.15.23-.82,1.06-1.31,2.46s-.34,2.65-.6,2.73-.94-1.33-.29-3.06S364.37,456.22,364.46,456.46Z" style="fill: rgb(38, 50, 56); transform-origin: 363.231px 459.032px;" id="el4iohzsc88k8" class="animable"></path><path d="M369.94,462c-.21.14-1-1-.86-2.67s1.18-2.63,1.36-2.46-.29,1.2-.41,2.55S370.19,461.88,369.94,462Z" style="fill: rgb(38, 50, 56); transform-origin: 369.772px 459.431px;" id="el2dl4u0l1x64" class="animable"></path></g><defs>     <filter id="active" height="200%">         <feMorphology in="SourceAlpha" result="DILATED" operator="dilate" radius="2"></feMorphology>                <feFlood flood-color="#32DFEC" flood-opacity="1" result="PINK"></feFlood>        <feComposite in="PINK" in2="DILATED" operator="in" result="OUTLINE"></feComposite>        <feMerge>            <feMergeNode in="OUTLINE"></feMergeNode>            <feMergeNode in="SourceGraphic"></feMergeNode>        </feMerge>    </filter>    <filter id="hover" height="200%">        <feMorphology in="SourceAlpha" result="DILATED" operator="dilate" radius="2"></feMorphology>                <feFlood flood-color="#ff0000" flood-opacity="0.5" result="PINK"></feFlood>        <feComposite in="PINK" in2="DILATED" operator="in" result="OUTLINE"></feComposite>        <feMerge>            <feMergeNode in="OUTLINE"></feMergeNode>            <feMergeNode in="SourceGraphic"></feMergeNode>        </feMerge>            <feColorMatrix type="matrix" values="0   0   0   0   0                0   1   0   0   0                0   0   0   0   0                0   0   0   1   0 "></feColorMatrix>    </filter></defs></svg>