<svg width="100%" height="100%" viewBox="0 0 770 180" fill="none" xmlns="http://www.w3.org/2000/svg">
<path d="M296.73 93.615C302.84 93.615 307.303 92.1417 310.12 89.195C312.98 86.2483 314.41 82.2183 314.41 77.105C314.41 74.765 314.042 72.6417 313.305 70.735C312.612 68.785 311.528 67.1383 310.055 65.795C308.625 64.4083 306.805 63.3467 304.595 62.61C302.385 61.8733 299.763 61.505 296.73 61.505H284.38V93.615H296.73ZM296.73 46.685C303.187 46.685 308.755 47.4433 313.435 48.96C318.158 50.4767 322.037 52.6 325.07 55.33C328.103 58.0167 330.335 61.2233 331.765 64.95C333.238 68.6767 333.975 72.7283 333.975 77.105C333.975 81.7417 333.217 85.9883 331.7 89.845C330.183 93.7017 327.887 97.0167 324.81 99.79C321.733 102.563 317.855 104.73 313.175 106.29C308.495 107.807 303.013 108.565 296.73 108.565H284.38V141H264.88V46.685H296.73ZM402.612 73.985V141H391.562C389.265 141 387.792 139.96 387.142 137.88L385.972 133.2C384.629 134.5 383.242 135.692 381.812 136.775C380.382 137.858 378.844 138.79 377.197 139.57C375.594 140.35 373.839 140.957 371.932 141.39C370.069 141.823 368.032 142.04 365.822 142.04C362.182 142.04 358.932 141.412 356.072 140.155C353.255 138.898 350.894 137.143 348.987 134.89C347.08 132.637 345.629 129.95 344.632 126.83C343.635 123.71 343.137 120.287 343.137 116.56V73.985H361.077V116.56C361.077 120.287 361.922 123.19 363.612 125.27C365.345 127.307 367.902 128.325 371.282 128.325C373.795 128.325 376.157 127.783 378.367 126.7C380.577 125.573 382.679 124.057 384.672 122.15V73.985H402.612ZM459.085 87.765C458.608 88.5017 458.11 89.0433 457.59 89.39C457.113 89.6933 456.441 89.845 455.575 89.845C454.708 89.845 453.82 89.6283 452.91 89.195C452 88.7617 450.981 88.3067 449.855 87.83C448.728 87.31 447.428 86.8333 445.955 86.4C444.525 85.9667 442.856 85.75 440.95 85.75C438.046 85.75 435.793 86.3567 434.19 87.57C432.586 88.74 431.785 90.3 431.785 92.25C431.785 93.5933 432.24 94.72 433.15 95.63C434.06 96.54 435.251 97.3417 436.725 98.035C438.241 98.685 439.953 99.3133 441.86 99.92C443.766 100.483 445.716 101.112 447.71 101.805C449.746 102.498 451.718 103.3 453.625 104.21C455.531 105.12 457.221 106.268 458.695 107.655C460.211 108.998 461.425 110.645 462.335 112.595C463.245 114.502 463.7 116.82 463.7 119.55C463.7 122.8 463.093 125.812 461.88 128.585C460.71 131.315 458.976 133.677 456.68 135.67C454.383 137.663 451.523 139.223 448.1 140.35C444.676 141.477 440.733 142.04 436.27 142.04C433.973 142.04 431.698 141.823 429.445 141.39C427.191 141 425.046 140.437 423.01 139.7C420.973 138.92 419.066 138.032 417.29 137.035C415.513 136.038 413.975 134.955 412.675 133.785L416.835 127.09C417.311 126.31 417.896 125.703 418.59 125.27C419.326 124.837 420.258 124.62 421.385 124.62C422.468 124.62 423.465 124.902 424.375 125.465C425.285 125.985 426.303 126.57 427.43 127.22C428.556 127.827 429.878 128.412 431.395 128.975C432.955 129.495 434.883 129.755 437.18 129.755C438.913 129.755 440.408 129.56 441.665 129.17C442.921 128.78 443.94 128.26 444.72 127.61C445.5 126.917 446.063 126.158 446.41 125.335C446.8 124.468 446.995 123.58 446.995 122.67C446.995 121.197 446.518 120.005 445.565 119.095C444.655 118.142 443.441 117.318 441.925 116.625C440.451 115.932 438.74 115.303 436.79 114.74C434.84 114.177 432.846 113.548 430.81 112.855C428.816 112.162 426.845 111.338 424.895 110.385C422.988 109.432 421.276 108.24 419.76 106.81C418.286 105.337 417.073 103.538 416.12 101.415C415.21 99.2917 414.755 96.7133 414.755 93.68C414.755 90.9067 415.296 88.285 416.38 85.815C417.463 83.3017 419.088 81.0917 421.255 79.185C423.421 77.2783 426.108 75.7617 429.315 74.635C432.565 73.5083 436.313 72.945 440.56 72.945C445.326 72.945 449.66 73.725 453.56 75.285C457.46 76.845 460.666 78.8817 463.18 81.395L459.085 87.765ZM492.87 80.55C494.126 79.4233 495.426 78.405 496.77 77.495C498.156 76.5417 499.608 75.74 501.125 75.09C502.685 74.3967 504.331 73.8767 506.065 73.53C507.841 73.14 509.748 72.945 511.785 72.945C515.425 72.945 518.653 73.5733 521.47 74.83C524.286 76.0867 526.648 77.8417 528.555 80.095C530.505 82.3483 531.956 85.035 532.91 88.155C533.906 91.275 534.405 94.6983 534.405 98.425V141H516.53V98.425C516.53 94.6983 515.663 91.8167 513.93 89.78C512.196 87.7 509.64 86.66 506.26 86.66C503.746 86.66 501.385 87.2017 499.175 88.285C496.965 89.3683 494.863 90.885 492.87 92.835V141H474.93V44.085H492.87V80.55ZM581.613 93.615C587.723 93.615 592.186 92.1417 595.003 89.195C597.863 86.2483 599.293 82.2183 599.293 77.105C599.293 74.765 598.924 72.6417 598.188 70.735C597.494 68.785 596.411 67.1383 594.938 65.795C593.508 64.4083 591.688 63.3467 589.478 62.61C587.268 61.8733 584.646 61.505 581.613 61.505H569.263V93.615H581.613ZM581.613 46.685C588.069 46.685 593.638 47.4433 598.318 48.96C603.041 50.4767 606.919 52.6 609.953 55.33C612.986 58.0167 615.218 61.2233 616.648 64.95C618.121 68.6767 618.858 72.7283 618.858 77.105C618.858 81.7417 618.099 85.9883 616.583 89.845C615.066 93.7017 612.769 97.0167 609.693 99.79C606.616 102.563 602.738 104.73 598.058 106.29C593.378 107.807 587.896 108.565 581.613 108.565H569.263V141H549.763V46.685H581.613ZM687.495 73.985V141H676.445C674.148 141 672.675 139.96 672.025 137.88L670.855 133.2C669.511 134.5 668.125 135.692 666.695 136.775C665.265 137.858 663.726 138.79 662.08 139.57C660.476 140.35 658.721 140.957 656.815 141.39C654.951 141.823 652.915 142.04 650.705 142.04C647.065 142.04 643.815 141.412 640.955 140.155C638.138 138.898 635.776 137.143 633.87 134.89C631.963 132.637 630.511 129.95 629.515 126.83C628.518 123.71 628.02 120.287 628.02 116.56V73.985H645.96V116.56C645.96 120.287 646.805 123.19 648.495 125.27C650.228 127.307 652.785 128.325 656.165 128.325C658.678 128.325 661.04 127.783 663.25 126.7C665.46 125.573 667.561 124.057 669.555 122.15V73.985H687.495ZM720.373 44.085V141H702.433V44.085H720.373ZM753.38 44.085V141H735.44V44.085H753.38Z" fill="#000022"/>
<rect width="110.113" height="17.0167" transform="matrix(0.778548 -0.627585 0.646055 0.763291 114 197.105)" fill="#21201E"/>
<rect width="125.915" height="14.739" transform="matrix(0.778548 -0.627585 0.656264 0.754531 13.6961 94.4659)" fill="#535353"/>
<rect width="155.95" height="14.8601" transform="matrix(0.491265 -0.87101 0.887233 0.461321 31.3053 170.264)" fill="#535353"/>
<ellipse rx="21.546" ry="21.4525" transform="matrix(0.778548 -0.627584 0.644879 0.764285 105.163 29.9178)" fill="#E07133"/>
<rect width="149.147" height="16.879" transform="matrix(-0.973685 0.227899 -0.23948 -0.970901 175.717 71.4776)" fill="#3C3936"/>
<rect width="146.688" height="17.1642" transform="matrix(-0.472202 0.88149 -0.890886 -0.454227 186.705 71.8494)" fill="#3C3936"/>
<ellipse rx="21.5467" ry="21.4533" transform="matrix(0.778898 -0.62715 0.645309 0.763922 30.6267 90.0168)" fill="#E07133"/>
<ellipse rx="21.546" ry="21.4525" transform="matrix(0.778548 -0.627585 0.644879 0.764285 175.657 60.0206)" fill="#E07133"/>
<rect width="149.147" height="16.879" transform="matrix(-0.973685 0.227899 -0.23948 -0.970901 205.206 134.634)" fill="#21201E"/>
<ellipse rx="21.546" ry="21.4525" transform="matrix(0.778548 -0.627585 0.644879 0.764285 45.1877 165.191)" fill="#E07133"/>
<ellipse rx="21.546" ry="21.4525" transform="matrix(0.778548 -0.627585 0.644879 0.764285 197.391 139.223)" fill="#E07133"/>
<ellipse rx="21.546" ry="21.4525" transform="matrix(0.778549 -0.627584 0.644879 0.764285 122.837 199.321)" fill="#E07133"/>
</svg>
