<svg width="100%" height="100%" viewBox="0 0 800 184" fill="none" xmlns="http://www.w3.org/2000/svg">
<rect x="136.336" y="22.9985" width="117.536" height="16.1305" transform="rotate(145.958 136.336 22.9985)" fill="#535353"/>
<rect x="192.51" y="84.4442" width="167.542" height="16.1305" transform="rotate(152.212 192.51 84.4442)" fill="#3C3936"/>
<rect x="125.773" y="36.6339" width="151.289" height="16.1305" transform="rotate(125.117 125.773 36.6339)" fill="#535353"/>
<rect x="174.2" y="82.3814" width="137.442" height="16.1305" transform="rotate(177.266 174.2 82.3814)" fill="#3C3936"/>
<ellipse cx="30" cy="82" rx="23" ry="22" fill="#E07133"/>
<ellipse cx="126.5" cy="23" rx="22.5" ry="23" fill="#E07133"/>
<ellipse cx="188.5" cy="67.5" rx="22.5" ry="21.5" fill="#E07133"/>
<circle cx="22.5" cy="161.5" r="22.5" fill="#E07133"/>
<path d="M273.3 90.48C278.58 90.48 282.38 89.22 284.7 86.7C287.02 84.18 288.18 80.66 288.18 76.14C288.18 74.14 287.88 72.32 287.28 70.68C286.68 69.04 285.76 67.64 284.52 66.48C283.32 65.28 281.78 64.36 279.9 63.72C278.06 63.08 275.86 62.76 273.3 62.76H262.74V90.48H273.3ZM273.3 47.58C279.46 47.58 284.74 48.32 289.14 49.8C293.58 51.24 297.22 53.24 300.06 55.8C302.94 58.36 305.06 61.38 306.42 64.86C307.78 68.34 308.46 72.1 308.46 76.14C308.46 80.5 307.76 84.5 306.36 88.14C304.96 91.78 302.82 94.9 299.94 97.5C297.06 100.1 293.4 102.14 288.96 103.62C284.56 105.06 279.34 105.78 273.3 105.78H262.74V135H242.46V47.58H273.3ZM372.389 72.78V135H360.869C358.549 135 357.029 133.96 356.309 131.88L355.229 128.28C354.029 129.44 352.789 130.5 351.509 131.46C350.229 132.38 348.849 133.18 347.369 133.86C345.929 134.5 344.349 135 342.629 135.36C340.949 135.76 339.109 135.96 337.109 135.96C333.709 135.96 330.689 135.38 328.049 134.22C325.449 133.02 323.249 131.36 321.449 129.24C319.649 127.12 318.289 124.62 317.369 121.74C316.449 118.86 315.989 115.7 315.989 112.26V72.78H334.589V112.26C334.589 115.34 335.289 117.72 336.689 119.4C338.089 121.08 340.149 121.92 342.869 121.92C344.909 121.92 346.809 121.5 348.569 120.66C350.369 119.78 352.109 118.6 353.789 117.12V72.78H372.389ZM424.567 86.4C424.087 87.16 423.567 87.7 423.007 88.02C422.487 88.34 421.807 88.5 420.967 88.5C420.087 88.5 419.207 88.32 418.327 87.96C417.447 87.56 416.487 87.14 415.447 86.7C414.447 86.26 413.307 85.86 412.027 85.5C410.747 85.1 409.287 84.9 407.647 84.9C405.287 84.9 403.467 85.36 402.187 86.28C400.947 87.16 400.327 88.4 400.327 90C400.327 91.16 400.727 92.12 401.527 92.88C402.367 93.64 403.467 94.32 404.827 94.92C406.187 95.48 407.727 96.02 409.447 96.54C411.167 97.06 412.927 97.64 414.727 98.28C416.527 98.92 418.287 99.68 420.007 100.56C421.727 101.4 423.267 102.46 424.627 103.74C425.987 104.98 427.067 106.5 427.867 108.3C428.707 110.1 429.127 112.26 429.127 114.78C429.127 117.86 428.567 120.7 427.447 123.3C426.327 125.9 424.647 128.14 422.407 130.02C420.207 131.9 417.467 133.36 414.187 134.4C410.947 135.44 407.207 135.96 402.967 135.96C400.847 135.96 398.727 135.76 396.607 135.36C394.487 134.96 392.427 134.42 390.427 133.74C388.467 133.06 386.647 132.26 384.967 131.34C383.287 130.38 381.847 129.36 380.647 128.28L384.967 121.44C385.447 120.64 386.047 120.02 386.767 119.58C387.527 119.1 388.487 118.86 389.647 118.86C390.727 118.86 391.687 119.1 392.527 119.58C393.407 120.06 394.347 120.58 395.347 121.14C396.347 121.7 397.507 122.22 398.827 122.7C400.187 123.18 401.887 123.42 403.927 123.42C405.367 123.42 406.587 123.28 407.587 123C408.587 122.68 409.387 122.26 409.987 121.74C410.587 121.22 411.027 120.64 411.307 120C411.587 119.36 411.727 118.7 411.727 118.02C411.727 116.78 411.307 115.76 410.467 114.96C409.627 114.16 408.527 113.48 407.167 112.92C405.807 112.32 404.247 111.78 402.487 111.3C400.767 110.78 399.007 110.2 397.207 109.56C395.407 108.92 393.627 108.16 391.867 107.28C390.147 106.36 388.607 105.22 387.247 103.86C385.887 102.46 384.787 100.76 383.947 98.76C383.107 96.76 382.687 94.34 382.687 91.5C382.687 88.86 383.187 86.36 384.187 84C385.227 81.6 386.767 79.5 388.807 77.7C390.847 75.9 393.407 74.48 396.487 73.44C399.567 72.36 403.167 71.82 407.287 71.82C409.527 71.82 411.687 72.02 413.767 72.42C415.887 72.82 417.867 73.38 419.707 74.1C421.547 74.82 423.227 75.68 424.747 76.68C426.267 77.64 427.607 78.7 428.767 79.86L424.567 86.4ZM457.064 78.24C459.304 76.32 461.724 74.78 464.324 73.62C466.964 72.42 470.104 71.82 473.744 71.82C477.144 71.82 480.144 72.42 482.744 73.62C485.384 74.78 487.604 76.42 489.404 78.54C491.204 80.62 492.564 83.12 493.484 86.04C494.404 88.92 494.864 92.06 494.864 95.46V135H476.264V95.46C476.264 92.42 475.564 90.06 474.164 88.38C472.764 86.66 470.704 85.8 467.984 85.8C465.944 85.8 464.024 86.24 462.224 87.12C460.464 87.96 458.744 89.12 457.064 90.6V135H438.464V45.18H457.064V78.24ZM538.613 90.48C543.893 90.48 547.693 89.22 550.013 86.7C552.333 84.18 553.493 80.66 553.493 76.14C553.493 74.14 553.193 72.32 552.593 70.68C551.993 69.04 551.073 67.64 549.833 66.48C548.633 65.28 547.093 64.36 545.213 63.72C543.373 63.08 541.173 62.76 538.613 62.76H528.053V90.48H538.613ZM538.613 47.58C544.773 47.58 550.053 48.32 554.453 49.8C558.893 51.24 562.533 53.24 565.373 55.8C568.253 58.36 570.373 61.38 571.733 64.86C573.093 68.34 573.773 72.1 573.773 76.14C573.773 80.5 573.073 84.5 571.673 88.14C570.273 91.78 568.133 94.9 565.253 97.5C562.373 100.1 558.713 102.14 554.273 103.62C549.873 105.06 544.653 105.78 538.613 105.78H528.053V135H507.773V47.58H538.613ZM637.702 72.78V135H626.182C623.862 135 622.342 133.96 621.622 131.88L620.542 128.28C619.342 129.44 618.102 130.5 616.822 131.46C615.542 132.38 614.162 133.18 612.682 133.86C611.242 134.5 609.662 135 607.942 135.36C606.262 135.76 604.422 135.96 602.422 135.96C599.022 135.96 596.002 135.38 593.362 134.22C590.762 133.02 588.562 131.36 586.762 129.24C584.962 127.12 583.602 124.62 582.682 121.74C581.762 118.86 581.302 115.7 581.302 112.26V72.78H599.902V112.26C599.902 115.34 600.602 117.72 602.002 119.4C603.402 121.08 605.462 121.92 608.182 121.92C610.222 121.92 612.122 121.5 613.882 120.66C615.682 119.78 617.422 118.6 619.102 117.12V72.78H637.702ZM668.939 45.18V135H650.339V45.18H668.939ZM700.111 45.18V135H681.511V45.18H700.111Z" fill="#000022"/>
</svg>
